<?xml version="1.0" standalone="no"?>
<!DOCTYPE svg PUBLIC "-//W3C//DTD SVG 1.1//EN" "http://www.w3.org/Graphics/SVG/1.1/DTD/svg11.dtd" >
<svg>
<metadata>
Created by FontForge 20090914 at Tue Aug  1 05:32:40 2017
 By www-data
</metadata>
<defs>
<font id="Zinniaseed-Regular" horiz-adv-x="250" >
  <font-face 
    font-family="Zinniaseed"
    font-weight="400"
    font-stretch="normal"
    units-per-em="1000"
    panose-1="2 0 5 3 0 0 0 0 0 0"
    ascent="800"
    descent="-200"
    x-height="317"
    cap-height="536.999"
    bbox="33 -82.999 613.889 682"
    underline-thickness="50"
    underline-position="-100"
    unicode-range="U+000D-U+20AC"
  />
<missing-glyph horiz-adv-x="364" 
d="M33 0v666h265v-666h-265zM66 33h199v600h-199v-600z" />
    <glyph glyph-name=".notdef" horiz-adv-x="364" 
d="M33 0v666h265v-666h-265zM66 33h199v600h-199v-600z" />
    <glyph glyph-name=".null" 
 />
    <glyph glyph-name=".null" 
 />
    <glyph glyph-name="CR" unicode="&#xd;" 
 />
    <glyph glyph-name="space" unicode=" " 
 />
    <glyph glyph-name="exclam" unicode="!" horiz-adv-x="190" 
d="M85 152c2 0 9.33008 11.499 21.9971 34.499s20.334 34.5 23.001 34.5c4 0 6 -1.33301 6 -4c0 -4.66699 -4.66699 -20 -14 -46c-10.667 -33.333 -21 -50 -31 -50c-2.66699 0 -5 1 -7 3c-5.33301 5.33301 -11.666 14.833 -18.999 28.5s-11 23.834 -11 30.501
c0 2 0.333008 3.33301 1 4c0 0.666992 0.333008 1 1 1c2.66699 0 7.83398 -6 15.501 -18s12.167 -18 13.5 -18zM77.9971 509.999c-1.33301 68 -1.99805 104.999 -1.99805 110.999c0 34.667 2 52 6 52c2 0 3.66699 -2.16699 5 -6.5s2.66602 -15.666 3.99902 -33.999
s2.66602 -42.5 3.99902 -72.5s3 -74.667 5 -134c0.666992 -15.333 1 -37.333 1 -66c0 -72 -3.33301 -108 -10 -108c-4.66699 0 -9 86 -13 258z" />
    <glyph glyph-name="quotedbl" unicode="&#x22;" horiz-adv-x="191" 
d="M129 642c4.66699 6.66699 8 9.99902 10 9.99902c0.666992 0 1 -0.666992 1 -2c0 -2.66699 -2 -9.66699 -6 -21c-4 -14 -9.33301 -31.667 -16 -53c-5.33301 -20 -10 -30 -14 -30c-2 0 -3 3.33301 -3 10c0 7.33301 3.5 21.833 10.5 43.5s12.833 35.834 17.5 42.501z
M65 601.999c11.333 34.667 19.334 52 24.001 52c1.33301 0 2 -3 2 -9c0 -7.33301 -4.5 -24.833 -13.5 -52.5s-14.833 -42.5 -17.5 -44.5c-2.66699 -1.33301 -4.33398 -2 -5.00098 -2c-2 0 -3 2 -3 6c0 7.33301 4.33301 24 13 50z" />
    <glyph glyph-name="numbersign" unicode="#" horiz-adv-x="510" 
d="M360 476c0 6 -7.66699 9.00098 -23 9.00098h-13c-24.667 -0.666992 -52.167 -2.5 -82.5 -5.5s-46.833 -5.83301 -49.5 -8.5c-2 -2.66699 -7.33301 -27.834 -16 -75.501s-13 -76.167 -13 -85.5c0 -6.66699 0.666992 -10.5 2 -11.5s6 -0.833008 14 0.5
c10 2 37 4.33301 81 7c43.333 2.66699 66 5 68 7c1.33301 3.33301 7 29.833 17 79.5s15 77.5 15 83.5zM378 560.001c7.33301 38 12.001 57.0039 14.001 57.0039s3 -3.33301 3 -10c0 -12 -3 -33 -9 -63c-2.66699 -17.333 -4 -27 -4 -29c0 -9.33301 5.66699 -14 17 -14
c2.66699 0 10 0.666992 22 2c6.66699 0.666992 14.334 1 23.001 1c8 0 12 -0.666992 12 -2c0 -3.33301 -13.333 -7 -40 -11c-26.667 -4.66699 -40 -7.66699 -40 -9c-19.333 -106.667 -29 -163.667 -29 -171c0 -1.33301 16 -3.33301 48 -6c30.667 -2 46 -5 46 -9
c0 -2.66699 -9.33301 -4 -28 -4c-2 0 -5.33301 0.166992 -10 0.5s-8.33398 0.5 -11.001 0.5l-49 2l-6 -25c-13.333 -52.667 -22.666 -79 -27.999 -79c-2.66699 0 -4 2 -4 6c0 6.66699 3.33301 23.667 10 51c4.66699 20 7 33.333 7 40l-1 5c-0.666992 0.666992 -7 1 -19 1
c-22.667 0 -51.834 -1 -87.501 -3s-54.834 -4 -57.501 -6c-2 -1.33301 -4.33301 -10 -7 -26c-3.33301 -26 -8.5 -51.5 -15.5 -76.5s-12.167 -37.5 -15.5 -37.5s-5 2.33301 -5 7c0 5.33301 4.33301 31 13 77c5.33301 29.333 8 44.666 8 45.999s-2.5 1.66602 -7.5 0.999023
s-10.5 -2 -16.5 -4c-18 -4.66699 -31.333 -7.33398 -40 -8.00098c-8.66699 -1.33301 -13 -1.33301 -13 0c0 0.666992 1.66699 2 5 4c2 1.33301 14.333 5.83301 37 13.5s35.334 13.167 38.001 16.5c3.33301 6 9.33301 32.167 18 78.5s13 74.833 13 85.5
c0 2.66699 -2.66699 4 -8 4c-12.667 0 -25.667 -1.33301 -39 -4c-16.667 -3.33301 -30.667 -5 -42 -5c-4.66699 0 -7 0.333008 -7 1c0 4.66699 20.667 11.667 62 21c25.333 6 38.666 9.66699 39.999 11c2.66699 2.66699 6.16699 15.167 10.5 37.5s6.83301 40.166 7.5 53.499
c0 14 2 21 6 21c2.66699 0 4 -4 4 -12s-2 -36 -6 -84l-1 -13l50 2c38.667 1.33301 67.667 3 87 5l35 3z" />
    <glyph glyph-name="dollar" unicode="$" horiz-adv-x="269" 
d="M84 264c0 2 0.666992 3 2 3c2 0 3 -1 3 -3c0 -1.33301 -1 -2 -3 -2c-1.33301 0 -2 0.666992 -2 2zM169 345c-16.667 32.667 -27.002 49 -31.002 49c-1.33301 0 -2 -2 -2 -6s0.333008 -7.33301 1 -10c0.666992 -2 3.33398 -33.833 8.00098 -95.5
s8.33398 -94.5 11.001 -98.5c3.33301 -6 8.33301 -6 15 0c15.333 14.667 23 35 23 61v14c-2 27.333 -10.333 56 -25 86zM113.998 544c0 32 -0.332031 51.334 -0.999023 58.001s-3.33398 10 -8.00098 10c-5.33301 0 -12.333 -4.33301 -21 -13c-8 -8.66699 -12 -20 -12 -34
c0 -16.667 5.66699 -36.334 17 -59.001c10.667 -20.667 17.667 -31 21 -31c2.66699 0 4 23 4 69zM113.999 646.001c2.66699 7.33301 5.83398 10.498 9.50098 9.49805s5.5 -5.5 5.5 -13.5c0 -6 3.33301 -10.333 10 -13c28 -10 47.667 -21 59 -33c8 -8 12 -13.333 12 -16
c0 -0.666992 -0.666992 -1 -2 -1c-2.66699 0 -7.66699 3.33301 -15 10c-6 6 -18 12.667 -36 20c-15.333 5.33301 -24 5.33301 -26 0c-1.33301 -4 -2 -17 -2 -39c0 -4.66699 0.166992 -12.667 0.5 -24s0.5 -20.333 0.5 -27l3 -82l21 -30c41.333 -62.667 62 -114.667 62 -156
c0 -32 -12 -59 -36 -81c-16.667 -15.333 -25 -26 -25 -32c0 -3.33301 -0.666992 -5.66602 -2 -6.99902s-3 -1.33301 -5 0s-3.66699 3.66602 -5 6.99902c-1.33301 4.66699 -11.333 7 -30 7c-19.333 0 -33.333 3.5 -42 10.5s-13 18.5 -13 34.5s3.66699 31.333 11 46
c6 12.667 10.333 19 13 19c0.666992 0 1 -1 1 -3c0 -3.33301 -1.33301 -8.66602 -4 -15.999c-3.33301 -8 -5 -19.667 -5 -35c0 -16 2.33301 -26 7 -30c8 -6.66699 18.333 -10 31 -10c7.33301 0 13.333 1.66699 18 5s7 9 7 17c0 5.33301 -1.66699 21.333 -5 48
c-3.33301 28 -7.33301 71.333 -12 130c-2.66699 36 -5 58 -7 66s-7.33301 18.333 -16 31c-28.667 40.667 -43 76.334 -43 107.001c0 28.667 12.667 48.667 38 60c11.333 4.66699 18.666 11.667 21.999 21z" />
    <glyph glyph-name="percent" unicode="%" horiz-adv-x="434" 
d="M356 205c-1.33301 18 -3.66699 27.668 -7 29.001c-0.666992 0 -1.66699 0.166992 -3 0.5s-2.33301 0.5 -3 0.5c-10 0 -18.167 -4.5 -24.5 -13.5s-9.5 -19.167 -9.5 -30.5c0 -15.333 4.66699 -26.666 14 -33.999c5.33301 -4.66699 8.83301 -6.83398 10.5 -6.50098
s5.5 4.16602 11.5 11.499c7.33301 8 11 18.333 11 31v12zM310.999 232.001c10 10 21.334 14.998 34.001 14.998c7.33301 0 12.666 -2 15.999 -6c6 -8 9 -19 9 -33c0 -23.333 -6.33301 -42 -19 -56c-7.33301 -8 -14 -12 -20 -12s-13.333 4.33301 -22 13
s-13 21.334 -13 38.001s5 30.334 15 41.001zM108 525.999c-6 3.33301 -9.83203 4.83398 -11.499 4.50098s-4.83398 -3.16602 -9.50098 -8.49902c-10.667 -12 -16 -29.333 -16 -52c0 -4.66699 0.666992 -8.33398 2 -11.001c3.33301 -6 8.33301 -9 15 -9
c13.333 0 23.333 9 30 27c2 7.33301 3 13.666 3 18.999c0 14.667 -4.33301 24.667 -13 30zM76.001 526c9.33301 10 16.999 15 22.999 15c3.33301 0 7.33301 -1 12 -3c5.33301 -2 10.5 -7.83301 15.5 -17.5s7.5 -18.167 7.5 -25.5c0 -14 -5.66699 -27.333 -17 -40
s-22.666 -19 -33.999 -19c-2.66699 0 -4.66699 0.333008 -6 1c-12 4 -18 16.667 -18 38c0 19.333 5.66699 36.333 17 51zM353 591c15.333 24 24.335 36 27.002 36c0.666992 0 1 -0.333008 1 -1c0 -6 -11 -28 -33 -66c-46.667 -81.333 -103.834 -169.833 -171.501 -265.5
s-106.834 -143.5 -117.501 -143.5h-1c-0.666992 0 -1 0.666992 -1 2c0 4.66699 8 18 24 40c88 121.333 178.667 254 272 398z" />
    <glyph glyph-name="ampersand" unicode="&#x26;" horiz-adv-x="398" 
d="M219 236c0 5.33301 -9.66699 18.667 -29 40s-30.666 32 -33.999 32s-15.5 -14.333 -36.5 -43s-34.167 -49 -39.5 -61c-6 -13.333 -9 -26 -9 -38c0 -9.33301 2 -15.666 6 -18.999c7.33301 -6 17 -9 29 -9c8 0 15 1.33301 21 4c7.33301 2.66699 17.166 7.5 29.499 14.5
s25.833 18.167 40.5 33.5s22 30.666 22 45.999zM191 572.001c-10.667 6.66699 -23.666 9.99902 -38.999 9.99902c-30.667 0 -52.334 -9.66699 -65.001 -29c-4.66699 -7.33301 -7 -18 -7 -32c0 -9.33301 0.333008 -17 1 -23c1.33301 -27.333 8.33301 -53.666 21 -78.999
c12 -26 24 -45.333 36 -58l17 -20l19 35c24.667 44.667 40 87 46 127c0.666992 2 1 5.33301 1 10c0 27.333 -10 47 -30 59zM118.001 595c10 3.33301 20.332 5 30.999 5c18.667 0 34.667 -3.66699 48 -11c26.667 -14 40 -39.333 40 -76c0 -16.667 -3 -34 -9 -52
c-7.33301 -20.667 -11 -33.334 -11 -38.001c0 -5.33301 -8.66699 -22.333 -26 -51l-26 -46l32 -30c18 -17.333 29 -26 33 -26c2 0 4 1 6 3c4 3.33301 9.33301 20.666 16 51.999c6 29.333 10 44 12 44c2.66699 0 4 -7.33301 4 -22c0 -24.667 -2.33301 -44 -7 -58
c-5.33301 -18.667 -8 -29.667 -8 -33c0 -6 15.333 -20.333 46 -43c30 -22.667 45 -36 45 -40c0 -1.33301 -2 -2 -6 -2s-17.833 8 -41.5 24s-37.167 26.333 -40.5 31c-1.33301 3.33301 -4.66602 5 -9.99902 5c-7.33301 0 -13 -3.66699 -17 -11s-15.333 -22.333 -34 -45
c-30.667 -36 -61 -54 -91 -54c-14.667 0 -27 5 -37 15c-8 8 -12 19 -12 33c0 23.333 18 60 54 110l33 45l-14 20c-24 33.333 -40.5 61.833 -49.5 85.5s-13.5 50.167 -13.5 79.5c0 20.667 0.833008 33.834 2.5 39.501s6.5 12.834 14.5 21.501c8.66699 10 20.667 18.333 36 25
z" />
    <glyph glyph-name="quotesingle" unicode="'" horiz-adv-x="183" 
d="M108 611c10.667 13.333 17.667 20 21 20c0.666992 0 1 -0.666992 1 -2c0 -6.66699 -9.66699 -24.667 -29 -54l-17.5 -27.5l-15.5 -24c-4 -6.33301 -6.33301 -10.166 -7 -11.499c-3.33301 0 -5.33301 1.66699 -6 5c0 7.33301 5.5 20.666 16.5 39.999
s23.167 37.333 36.5 54z" />
    <glyph glyph-name="parenleft" unicode="(" horiz-adv-x="320" 
d="M160 561c13.333 14 20.999 19.998 22.999 17.998c3.33301 -2 3.83301 -5.5 1.5 -10.5s-6.16602 -9.16699 -11.499 -12.5c-6.66699 -3.33301 -18.834 -22.833 -36.501 -58.5s-30.834 -67.167 -39.501 -94.5c-15.333 -48 -23 -94.333 -23 -139c0 -60 13 -115.667 39 -167
c16.667 -33.333 37.334 -63.833 62.001 -91.5s47.667 -46.5 69 -56.5c13.333 -6 20 -11 20 -15c0 -0.666992 -0.666992 -1 -2 -1c-0.666992 0 -3.66699 0.666992 -9 2c-29.333 9.33301 -57.666 27.333 -84.999 54s-50.333 59.334 -69 98.001c-28.667 58 -43 115.667 -43 173
c0 20.667 1.33301 40 4 58c6 40.667 19 85.334 39 134.001s40.333 85 61 109z" />
    <glyph glyph-name="parenright" unicode=")" horiz-adv-x="303" 
d="M61 575c5.33301 0 22 -15 50 -45c86.667 -98.667 133 -197.667 139 -297c0.666992 -6 1 -15 1 -27c0 -44.667 -11 -90 -33 -136c-11.333 -23.333 -28.5 -47.5 -51.5 -72.5s-43.833 -42.5 -62.5 -52.5l-27 -15l42 42c40.667 40.667 69.667 80.334 87 119.001
c16.667 37.333 25 76 25 116c0 2.66699 -0.166992 7.16699 -0.5 13.5s-0.5 11.166 -0.5 14.499c-2.66699 50 -15 98 -37 144s-57 96.667 -105 152c-20.667 24 -31 38 -31 42c0 1.33301 1.33301 2 4 2z" />
    <glyph glyph-name="asterisk" unicode="*" horiz-adv-x="228" 
d="M100 590c0 0.666992 -3.49902 6.16602 -10.499 16.499s-10.5 17.5 -10.5 21.5c0 2.66699 1.66699 4 5 4c4 0 9.33301 -5 16 -15c6.66699 -9.33301 11.667 -14 15 -14s5 5.66699 5 17c0 12 1.66699 18 5 18s5 -3.66699 5 -11c0 -6 1.16699 -9.16699 3.5 -9.5
s7.16602 2.16699 14.499 7.5c5.33301 3.33301 9.33301 5 12 5c2 0 3 -1.33301 3 -4c0 -4.66699 -3.33301 -10.667 -10 -18c-8 -9.33301 -12 -15.333 -12 -18c0 -2 5.66699 -3 17 -3c12 0 18 -1.66699 18 -5s-4.33301 -5 -13 -5c-8 0 -12 -2 -12 -6
c0 -3.33301 2.66699 -9.33301 8 -18c4 -6 6 -10.333 6 -13c0 -2 -1 -3 -3 -3c-2.66699 0 -7 2 -13 6s-10 6.33301 -12 7s-3.66699 0.333984 -5 -0.999023s-2.66602 -4.66602 -3.99902 -9.99902c-2.66699 -8.66699 -5.33398 -13 -8.00098 -13c-3.33301 0 -5 4.33301 -5 13
c0 8 -1 12 -3 12s-7.33301 -3.66699 -16 -11l-13 -12l3 13c0 1.33301 0.833008 4.83301 2.5 10.5s2.83398 9.5 3.50098 11.5c1.33301 4 1.16602 6.5 -0.500977 7.5s-7.16699 1.5 -16.5 1.5c-12.667 0 -19 2 -19 6s7.66699 6.66699 23 8c14 1.33301 21 2.66602 21 3.99902z
" />
    <glyph glyph-name="plus" unicode="+" horiz-adv-x="333" 
d="M169 375c0 3.33301 2.33301 4.33301 7 3c4 -2 7 -15.333 9 -40l3 -38l43 -4c32 -2.66699 48 -6 48 -10c0 -2.66699 -14 -4 -42 -4c-23.333 0 -37.166 -0.5 -41.499 -1.5s-7.83301 -4.83301 -10.5 -11.5c-3.33301 -8 -5 -21 -5 -39c0 -32.667 -3.66699 -49 -11 -49
c-2.66699 0 -4 9.66699 -4 29v20l2 50h-23c-12 0 -30.667 -1.33301 -56 -4c-13.333 -1.33301 -21 -2 -23 -2c-7.33301 0 -11 0.666992 -11 2c0 3.33301 13 7 39 11l31 5.5c13.333 2.33301 21.666 3.83301 24.999 4.5l18 4l1 35c0 5.33301 0.166992 11.333 0.5 18
s0.5 11.667 0.5 15v6z" />
    <glyph glyph-name="comma" unicode="," horiz-adv-x="171" 
d="M96 190c8 8 14 11.999 18 11.999c2 0 3 -1 3 -3c0 -4 -2.66699 -9.66699 -8 -17s-14 -15 -26 -23s-20.667 -12 -26 -12c-1.33301 0 -2.33301 0.333008 -3 1c-2.66699 2.66699 1.33301 7.33398 12 14.001c10 8 20 17.333 30 28z" />
    <glyph glyph-name="hyphen" unicode="-" horiz-adv-x="360" 
d="M139 305c12.667 1.33301 40.333 2.00293 83 2.00293c56.667 0 85 -1.33301 85 -4c0 -4 -0.333008 -6 -1 -6l-12 -1c-8.66699 -0.666992 -21.5 -1.33398 -38.5 -2.00098s-32.5 -1.33398 -46.5 -2.00098c-76 -4.66699 -118 -7.33398 -126 -8.00098
c-5.33301 -0.666992 -11.333 -1 -18 -1c-8.66699 0 -13 1 -13 3c0 3.33301 11.667 7 35 11c32 5.33301 49.333 8 52 8z" />
    <glyph glyph-name="period" unicode="." horiz-adv-x="134" 
d="M60 136c-4 4 -6 8.33301 -6 13c0 7.33301 4.66699 11 14 11s14 -4 14 -12c0 -4 -2 -8 -6 -12s-6.66699 -6 -8 -6s-4 2 -8 6z" />
    <glyph glyph-name="slash" unicode="/" horiz-adv-x="482" 
d="M404 527c11.333 13.333 18.666 20.001 21.999 20.001c1.33301 0 2 -1 2 -3c0 -0.666992 -1.83301 -3.66699 -5.5 -9l-17 -26l-20.5 -32c-32.667 -50.667 -91.667 -152 -177 -304c-31.333 -55.333 -59.333 -102 -84 -140c-38 -56 -60 -84 -66 -84v1
c0 7.33301 11.667 28.666 35 63.999c14.667 22.667 57.334 95 128.001 217c85.333 151.333 146.333 250 183 296z" />
    <glyph glyph-name="zero" unicode="0" horiz-adv-x="313" 
d="M125 590c12 6.66699 21.6631 10.0049 28.9961 10.0049c0.666992 0 1.66699 -0.166992 3 -0.5s2.33301 -0.5 3 -0.5c18 -4.66699 35.333 -18.667 52 -42s29.334 -52.333 38.001 -87c6.66699 -22.667 10 -55 10 -97c0 -48.667 -4.33301 -85.667 -13 -111
c-21.333 -70 -49.333 -111.333 -84 -124c-11.333 -4.66699 -18.666 -7 -21.999 -7c-4 0 -10.667 2.66699 -20 8c-20.667 10.667 -37.167 33.167 -49.5 67.5s-18.5 75.5 -18.5 123.5v5c0 48.667 6.5 90.167 19.5 124.5s30.833 57.5 53.5 69.5
c8.66699 4.66699 17.334 7 26.001 7c5.33301 0 8 -1.33301 8 -4s-6.66699 -7 -20 -13c-23.333 -10 -42.666 -38.667 -57.999 -86c-7.33301 -23.333 -11 -56 -11 -98c0 -38.667 3.33301 -71.334 10 -98.001c4.66699 -18.667 11.334 -36 20.001 -52s16.667 -26 24 -30
c6.66699 -3.33301 12.667 -5 18 -5c16.667 0 33 10.5 49 31.5s29 49.5 39 85.5c9.33301 32 14 67.333 14 106c0 44.667 -6.83301 85.667 -20.5 123s-32.167 64.666 -55.5 81.999c-7.33301 5.33301 -13 8 -17 8c-2 0 -7.66699 -1.33301 -17 -4
c-20.667 -6 -34.667 -18.333 -42 -37c-1.33301 -4 -3 -5 -5 -3c-1.33301 1.33301 -2 2.66602 -2 3.99902c0 5.33301 4.16699 12.666 12.5 21.999s17.166 16.666 26.499 21.999z" />
    <glyph glyph-name="one" unicode="1" horiz-adv-x="221" 
d="M134 571c12 14.667 20.332 21.998 24.999 21.998c0.666992 0 2.33398 -0.666992 5.00098 -2c4 -3.33301 6 -10 6 -20c0 -6.66699 -0.333008 -12.334 -1 -17.001c-2.66699 -20 -5.66699 -74.333 -9 -163c-7.33301 -167.333 -15.666 -251 -24.999 -251
c-0.666992 0 -1.33398 0.333008 -2.00098 1c-0.666992 2.66699 -1 6.33398 -1 11.001c0 32.667 3.83301 107.667 11.5 225s12.834 182 15.501 194c0.666992 2 1 4.33301 1 7s-0.666992 4 -2 4c-4 0 -13.5 -10.667 -28.5 -32s-29.167 -42.666 -42.5 -63.999l-20 -33
c-4.66699 -8.66699 -8 -13 -10 -13c-0.666992 0 -1 0.666992 -1 2c0 6.66699 3.66699 16.334 11 29.001c17.333 34.667 39.666 68 66.999 100z" />
    <glyph glyph-name="two" unicode="2" horiz-adv-x="383" 
d="M164 579c12 4.66699 21.665 7.00098 28.998 7.00098s15 -3.66699 23 -11c8.66699 -7.33301 13 -17.666 13 -30.999v-12c-2 -39.333 -29.333 -94 -82 -164c-24 -32.667 -40.667 -58.167 -50 -76.5s-14.666 -36.833 -15.999 -55.5c0 -2 -0.166992 -4.83301 -0.5 -8.5
s-0.5 -6.16699 -0.5 -7.5c0 -10 5.33301 -20.333 16 -31c11.333 -11.333 26.333 -19 45 -23s49.667 -6 93 -6c34 0 57.5 -1.33301 70.5 -4s20.833 -7.66699 23.5 -15c1.33301 -3.33301 0.333008 -5 -3 -5c-2 0 -5.33301 0.666992 -10 2
c-6 1.33301 -36.333 2.66602 -91 3.99902c-43.333 0.666992 -74 3.16699 -92 7.5s-34 13.166 -48 26.499c-8.66699 8.66699 -14 15.5 -16 20.5s-3 15.167 -3 30.5c0 20.667 4.83301 41.167 14.5 61.5s28.5 49.5 56.5 87.5c54 72.667 81 126.667 81 162
c0 9.33301 -2.66699 17.333 -8 24c-5.33301 6 -11.666 9 -18.999 9c-9.33301 0 -23 -5 -41 -15c-44 -23.333 -70.667 -45.333 -80 -66c-4.66699 -10.667 -8.66699 -15.667 -12 -15c-1.33301 0.666992 -2 3 -2 7c0 11.333 12.667 28.333 38 51s49 38 71 46z" />
    <glyph glyph-name="three" unicode="3" horiz-adv-x="346" 
d="M144 531c8 2.66699 17.333 4.00488 28 4.00488c18 0 35.167 -4.33301 51.5 -13s27.833 -20 34.5 -34c4 -8 6 -15.667 6 -23c0 -12 -4.16699 -21.833 -12.5 -29.5s-19.166 -11.5 -32.499 -11.5c-8 0 -14.333 -1.66699 -19 -5s-2.33398 -8.33301 6.99902 -15
c24.667 -18.667 45 -40.167 61 -64.5s24 -46.5 24 -66.5c0 -42.667 -34 -74.334 -102 -95.001c-21.333 -6 -48.666 -14.667 -81.999 -26c-26 -8.66699 -41.667 -13 -47 -13c-4 0 -6 2 -6 6c0 11.333 30 25.666 90 42.999c49.333 16 75.666 24.667 78.999 26
c12.667 4.66699 24.5 13 35.5 25s16.5 22.333 16.5 31c0 18 -10.5 40.167 -31.5 66.5s-46.833 49.833 -77.5 70.5c-20.667 13.333 -31 21.666 -31 24.999c0 2.66699 15.333 5.33398 46 8.00098c23.333 1.33301 39.5 3.66602 48.5 6.99902s13.5 8.66602 13.5 15.999
c0 3.33301 -0.333008 5.66602 -1 6.99902c-2.66699 9.33301 -8.66699 18.5 -18 27.5s-19.333 15.167 -30 18.5c-4 1.33301 -10.333 2 -19 2c-16.667 0 -33.5 -4 -50.5 -12s-29.833 -18.333 -38.5 -31c-7.33301 -9.33301 -12.333 -14 -15 -14s-4 3 -4 9
c0 8.66699 8 19.5 24 32.5s33.333 22.5 52 28.5z" />
    <glyph glyph-name="four" unicode="4" horiz-adv-x="393" 
d="M63 520l-0.000976562 17c0 43.333 3.66699 65 11 65c2 0 3 -19 3 -57c0 -77.333 -2 -122 -6 -134c-0.666992 -1.33301 -1 -3.33301 -1 -6c0 -9.33301 17 -14 51 -14c6.66699 0 26.667 0.666992 60 2l88 3l6 87c3.33301 48 6 78.167 8 90.5s5 18.5 9 18.5
c2.66699 0 4 -6.33301 4 -19c0 -18.667 -2.33301 -61.667 -7 -129c-1.33301 -18.667 -2 -29 -2 -31c0 -8.66699 1.66699 -14 5 -16s12 -4 26 -6c12 -2 18 -4.33301 18 -7s-6 -4 -18 -4h-5l-23 1l-4 -20c-3.33301 -19.333 -6.66602 -49.666 -9.99902 -90.999
c-8 -90 -16.333 -135 -25 -135c-1.33301 0 -2 1.33301 -2 4c0 8 1.66699 26 5 54c4 30 7.33301 71.333 10 124l4 68l-63 -4c-43.333 -3.33301 -74 -5 -92 -5c-29.333 0 -47 3 -53 9c-4 4 -6 9 -6 15l4 32c3.33301 23.333 5 52.666 5 87.999z" />
    <glyph glyph-name="five" unicode="5" horiz-adv-x="442" 
d="M234 536c13.333 1.33301 29.3311 1.99902 47.998 1.99902c58 0 91 -2 99 -6c2.66699 -2 4 -3.33301 4 -4c0 -3.33301 -9.66699 -5 -29 -5c-13.333 0 -24.333 0.333008 -33 1c-3.33301 0 -8.5 0.166992 -15.5 0.5s-12.167 0.5 -15.5 0.5
c-53.333 0 -94.666 -6.33301 -123.999 -19c-14.667 -6.66699 -26 -19 -34 -37c-8 -17.333 -12.667 -30.666 -14 -39.999c-1.33301 -5.33301 -1.16602 -8.83301 0.500977 -10.5s5.16699 -1.83398 10.5 -0.500977h9c34 0 69.333 -8 106 -24c34 -15.333 60.333 -34.333 79 -57
s28 -46.334 28 -71.001c0 -5.33301 -1.33301 -14 -4 -26c-8.66699 -31.333 -31.5 -56.5 -68.5 -75.5s-81.167 -28.5 -132.5 -28.5c-11.333 0 -19.666 0.333008 -24.999 1c-45.333 2.66699 -68 7 -68 13c0 2 22.667 3 68 3c44 0 75.333 2.33301 94 7
c38 9.33301 67.5 23.333 88.5 42s31.5 39.334 31.5 62.001s-10 45 -30 67c-37.333 40 -90 62.333 -158 67l-51 4l2 14c1.33301 13.333 6 29.333 14 48s15.667 31.334 23 38.001c17.333 16.667 49.666 28 96.999 34z" />
    <glyph glyph-name="six" unicode="6" horiz-adv-x="271" 
d="M173 569c16.667 14 26.3379 21.002 29.0049 21.002h1c2 -2 -5.66699 -12 -23 -30c-24 -25.333 -45.5 -58.333 -64.5 -99s-31.5 -80.667 -37.5 -120c-2.66699 -15.333 -4 -36.333 -4 -63c0 -46.667 3.33301 -78.334 10 -95.001c11.333 -25.333 23 -38 35 -38
c8.66699 0 17.667 5.66699 27 17c14 16.667 26.333 40.667 37 72s16 58.666 16 81.999c0 10.667 -1.66699 20 -5 28c-4 6.66699 -11.333 10 -22 10c-22.667 0 -46.667 -10.667 -72 -32c-10.667 -9.33301 -16.334 -13.333 -17.001 -12c0.666992 0.666992 1.5 2 2.5 4
s2 4.5 3 7.5s2.16699 5.5 3.5 7.5c5.33301 10 14.666 19 27.999 27c18.667 10.667 35.667 16 51 16c22.667 0 37 -11.333 43 -34c1.33301 -4 2 -10.667 2 -20c0 -29.333 -8 -64.166 -24 -104.499s-32.333 -66.166 -49 -77.499c-8 -5.33301 -16.333 -8 -25 -8
c-16.667 0 -30.834 10.667 -42.501 32s-18.834 50.666 -21.501 87.999c-0.666992 5.33301 -1 13 -1 23c0 53.333 11.167 108.166 33.5 164.499s51.166 100.833 86.499 133.5z" />
    <glyph glyph-name="seven" unicode="7" horiz-adv-x="368" 
d="M56 536c0 5.33301 15.9971 8 47.9971 8c4 0 9 -0.166992 15 -0.5s9.66699 -0.5 11 -0.5c28 -1.33301 63 -2 105 -2c31.333 0 52 -0.666992 62 -2s15 -5 15 -11c0 -6.66699 -7.33301 -21.667 -22 -45c-45.333 -74 -87.333 -159.667 -126 -257
c-18.667 -48 -30.667 -74.667 -36 -80c-2.66699 -2.66699 -5.16699 -4.16699 -7.5 -4.5s-3.66602 0.5 -3.99902 2.5s0.833984 4.66699 3.50098 8c4 5.33301 12 24.666 24 57.999c36 104.667 80 197.667 132 279c8.66699 13.333 13 22 13 26c0 2 -0.666992 3.33301 -2 4
c-3.33301 1.33301 -42.666 3.33301 -117.999 6s-113 6.33398 -113 11.001z" />
    <glyph glyph-name="eight" unicode="8" horiz-adv-x="301" 
d="M148 334c-6.66699 12.667 -11.335 19.001 -14.002 19.001c-4 0 -13.167 -8.5 -27.5 -25.5s-24.166 -30.833 -29.499 -41.5c-6.66699 -15.333 -10 -33.333 -10 -54c0 -20 3.33301 -36.667 10 -50c16 -30.667 35.333 -46 58 -46c10 0 18.667 3.66699 26 11
c14.667 14.667 22 36 22 64c0 6 -0.333008 10.667 -1 14c-5.33301 39.333 -16.666 75.666 -33.999 108.999zM203.999 496.001c0 -1.33301 0.665039 -3.99805 1.99805 -7.99805s1.83301 -7.16699 1.5 -9.5s-2.16602 -3.5 -5.49902 -3.5c-5.33301 0 -8 3.33301 -8 10
c0 16 -12.667 33 -38 51c-21.333 15.333 -39.333 23 -54 23c-6.66699 0 -12.667 -1.66699 -18 -5c-7.33301 -5.33301 -11 -11.333 -11 -18c0 -4.66699 0.333008 -8.66699 1 -12c1.33301 -11.333 11.666 -36.666 30.999 -75.999s31 -59 35 -59
c3.33301 0 17.833 8.5 43.5 25.5s40.5 28.167 44.5 33.5c2.66699 4 6.16699 5.66699 10.5 5s6.5 -3.33398 6.5 -8.00098c0 -3.33301 -16.333 -16.333 -49 -39c-30 -20.667 -45 -34.334 -45 -41.001c0 -2.66699 5 -16 15 -40c18.667 -43.333 28 -83 28 -119
c0 -42.667 -12.667 -69 -38 -79c-8.66699 -3.33301 -16 -5 -22 -5c-21.333 0 -40.166 11 -56.499 33s-24.5 48 -24.5 78c0 1.33301 0.166992 3.5 0.5 6.5s0.5 5.16699 0.5 6.5c2.66699 34 19.334 67.333 50.001 100l25 27l-32 61c-23.333 44.667 -35 77.667 -35 99
c0 12 3.33301 21.333 10 28s15 10 25 10c10.667 0 24 -4 40 -12c11.333 -6 25.333 -16.833 42 -32.5s25 -25.834 25 -30.501z" />
    <glyph glyph-name="nine" unicode="9" horiz-adv-x="288" 
d="M148 566c21.333 10.667 39.998 16.001 55.998 16.001c6.66699 0 12.334 -1 17.001 -3c5.33301 -2 8 -3.66699 8 -5c0 -3.33301 -9 -5 -27 -5c-28 0 -56.5 -12.5 -85.5 -37.5s-43.5 -52.167 -43.5 -81.5c0 -6 0.333008 -10.333 1 -13c3.33301 -18.667 22 -42.167 56 -70.5
s60.333 -42.833 79 -43.5c6 0 9.66699 33.333 11 100c2.66699 78.667 7 118 13 118c1.33301 0 2.66602 -66 3.99902 -198v-73c0 -83.333 -1.66699 -125 -5 -125c-1.33301 0 -3 5.33301 -5 16c-2 8.66699 -3 36.667 -3 84v68h-25c-16.667 0 -32.667 5 -48 15
c-15.333 9.33301 -32.166 23.166 -50.499 41.499s-30.5 33.5 -36.5 45.5c-6 11.333 -9 23.333 -9 36c0 22 8.33301 43.333 25 64s39.334 37.667 68.001 51z" />
    <glyph glyph-name="colon" unicode=":" horiz-adv-x="135" 
d="M65 140c2.66699 4 6.33203 5.66797 10.999 5.00098s7 -3 7 -7c0 -4.66699 -2 -8.33398 -6 -11.001c-3.33301 -2 -6.66602 -1.16699 -9.99902 2.5s-4 7.16699 -2 10.5zM53.998 407.001c1.33301 4 3.33301 6.16895 6 6.50195s5 -0.833984 7 -3.50098s3 -6.33398 3 -11.001
c0 -9.33301 -2.33301 -14 -7 -14c-6.66699 0 -10 4.66699 -10 14c0 3.33301 0.333008 6 1 8z" />
    <glyph glyph-name="semicolon" unicode=";" horiz-adv-x="146" 
d="M75 136c-1.33301 2 -2 5 -2 9c0 6.66699 2.66699 10 8 10c6 0 10 -5 12 -15c2 -8 3 -15 3 -21c0 -10 -6 -21 -18 -33c-10 -10 -17.333 -15 -22 -15c-1.33301 0 -2 1 -2 3c0 4 3.66699 10 11 18c10 12 15 21.333 15 28c0 4 -1.66699 9.33301 -5 16zM61 419
c0 3.33301 1.66699 4.99902 5 4.99902s7 -1.16699 11 -3.5s6 -4.5 6 -6.5c0 -6.66699 -4 -8.66699 -12 -6c-6 2.66699 -9.33301 6.33398 -10 11.001z" />
    <glyph glyph-name="less" unicode="&#x3c;" horiz-adv-x="330" 
d="M198 409c18.667 10 30.001 14.998 34.001 14.998s6 -1 6 -3c0 -3.33301 -7.66699 -9 -23 -17c-15.333 -8.66699 -35.333 -22.5 -60 -41.5s-45 -36.833 -61 -53.5l-24 -26l12 -7l35 -20l84.5 -49.5c45.667 -27 69.834 -41.833 72.501 -44.5
c4 -3.33301 2.66699 -4.66602 -4 -3.99902c-5.33301 0 -11 1 -17 3c-7.33301 2.66699 -38.333 19.834 -93 51.501s-88.334 52.167 -101.001 61.5c-3.33301 2 -5 4 -5 6c0 2.66699 9.66699 14.667 29 36c39.333 41.333 77.666 72.333 114.999 93z" />
    <glyph glyph-name="equal" unicode="=" horiz-adv-x="375" 
d="M70 217c8 2.66699 49.668 4 125.001 4c85.333 0 128 -1.33301 128 -4c0 -6 -53.667 -10 -161 -12c-16.667 -0.666992 -37.334 -1 -62.001 -1c-29.333 0 -44 1.33301 -44 4c0 3.33301 4.66699 6.33301 14 9zM73.001 374c21.333 2.66699 63 4 125 4
c66.667 0 100 -1.33301 100 -4c0 -6.66699 -45 -10.667 -135 -12h-33c-48.667 0 -73.667 1.33301 -75 4c0 0.666992 0.666992 1.5 2 2.5s3.33301 2 6 3s6 1.83301 10 2.5z" />
    <glyph glyph-name="greater" unicode="&#x3e;" horiz-adv-x="319" 
d="M92 405c0 1.33301 0.999023 1.99707 2.99902 1.99707c10.667 0 37.167 -12.167 79.5 -36.5s70.5 -44.166 84.5 -59.499c5.33301 -5.33301 8 -9 8 -11c0 -3.33301 -11 -7.66602 -33 -12.999c-29.333 -7.33301 -70.666 -29 -123.999 -65
c-30.667 -19.333 -47.667 -29 -51 -29c-1.33301 0 -2.33301 0.333008 -3 1s-1 1.33398 -1 2.00098c0 6 13.667 18.333 41 37s56 35.334 86 50.001c34.667 17.333 52 26.666 52 27.999c0 2 -12.667 11.333 -38 28s-47 30 -65 40c-26 14 -39 22.667 -39 26z" />
    <glyph glyph-name="question" unicode="?" horiz-adv-x="279" 
d="M122 187c6 11.333 11.668 16 17.001 14c2 -0.666992 3 -3 3 -7c0 -6 -5 -18.333 -15 -37s-17.333 -29 -22 -31h-1l-2 -1c-9.33301 0 -17 9.66699 -23 29c-2 6 -3 10.667 -3 14c0 4 1.33301 6 4 6c1.33301 0 4.66602 -2 9.99902 -6c4.66699 -3.33301 8 -5 10 -5
c6.66699 0 14 8 22 24zM101.001 661c10 4.66699 20.667 6.99707 32 6.99707c24 0 45.167 -9.83301 63.5 -29.5s27.5 -43.167 27.5 -70.5c0 -7.33301 -0.333008 -12.666 -1 -15.999c-5.33301 -34.667 -29.333 -76 -72 -124c-24.667 -28 -41.667 -51.333 -51 -70
s-14 -39.667 -14 -63c0 -25.333 1.33301 -41.666 4 -48.999c1.33301 -5.33301 2 -8.66602 2 -9.99902c0 -2.66699 -0.666992 -4 -2 -4c-4 0 -8.66699 6 -14 18c-4.66699 9.33301 -7 23.666 -7 42.999c0 30.667 4.66699 55.334 14 74.001c8 15.333 26 39 54 71
c28.667 32.667 47.334 58 56.001 76c8 18 12 35.667 12 53c0 24 -6.5 44.167 -19.5 60.5s-29.5 24.5 -49.5 24.5c-8 0 -15.667 -1.33301 -23 -4c-22.667 -8 -38.334 -24.333 -47.001 -49c-4 -10 -6.33301 -15 -7 -15s-1.66699 1.33301 -3 4c-1.33301 4 -2 7.33301 -2 10
c0 10.667 4.83301 22.5 14.5 35.5s20.5 22.167 32.5 27.5z" />
    <glyph glyph-name="at" unicode="@" horiz-adv-x="613" 
d="M249 549c16.667 4.66699 35.6689 6.99902 57.002 6.99902c68.667 0 128.334 -20.667 179.001 -62c49.333 -40.667 74 -86.667 74 -138c-0.666992 -42.667 -11.5 -85.834 -32.5 -129.501s-43.167 -68.5 -66.5 -74.5c-2 -0.666992 -5.33301 -1 -10 -1
c-20.667 0 -41 8.33301 -61 25c-10 10 -17 15 -21 15c-3.33301 0 -7.33301 -5.33301 -12 -16s-13.334 -22.334 -26.001 -35.001c-18.667 -18.667 -38 -28 -58 -28c-16 0 -30.5 5.83301 -43.5 17.5s-22.5 28.167 -28.5 49.5c-4 15.333 -6 33 -6 53c0 36 5 67 15 93
c6.66699 19.333 20.167 39.333 40.5 60s38.166 33.334 53.499 38.001c14 4 25 6 33 6c10 0 15 -2.33301 15 -7c0 -5.33301 -5 -8 -15 -8c-18.667 0 -37.834 -7.33301 -57.501 -22s-34.834 -33 -45.501 -55c-15.333 -30.667 -23 -64.334 -23 -101.001
c0 -30 5.5 -55.167 16.5 -75.5s25.833 -30.5 44.5 -30.5c30 0 54 18.667 72 56c5.33301 10.667 8 27.667 8 51v18v16c0 24 1.66699 37 5 39c2.66699 1.33301 4.33398 2 5.00098 2c8 0 12.333 -17.667 13 -53c0.666992 -21.333 1.66699 -34.666 3 -39.999s6 -12.333 14 -21
c20 -20 39 -30 57 -30c3.33301 0 5.66602 0.333008 6.99902 1c19.333 4.66699 38.833 28.167 58.5 70.5s29.5 81.5 29.5 117.5c0 2 -0.166992 4.5 -0.5 7.5s-0.5 5.16699 -0.5 6.5c-4 40 -24.833 75.5 -62.5 106.5s-83.834 50.833 -138.501 59.5c-11.333 2 -22.333 3 -33 3
c-40.667 0 -78 -12 -112 -36s-61.667 -57.667 -83 -101c-21.333 -46 -35.333 -99.667 -42 -161c-2.66699 -19.333 -4 -41.333 -4 -66c0 -78 12.333 -137.333 37 -178c12 -20 26.667 -34.5 44 -43.5s40.666 -14.167 69.999 -15.5h18c62 0 126 13.333 192 40
s102.333 54.334 109 83.001c2.66699 8 5.33398 12 8.00098 12c1.33301 0 2 -1 2 -3c0 -6 -4 -18 -12 -36c-12 -27.333 -51.667 -53.666 -119 -78.999s-128.666 -38 -183.999 -38c-12 0 -23.667 1 -35 3c-38 6 -69 22 -93 48c-34.667 38.667 -52 103.667 -52 195
c0 17.333 0.333008 31 1 41c2.66699 84 17.334 153 44.001 207c16.667 34 38.667 63.333 66 88s56 41 86 49z" />
    <glyph glyph-name="A" unicode="A" horiz-adv-x="305" 
d="M220 604c-1.33301 2.66699 -1.66895 5.66602 -1.00195 8.99902s2.16699 6.33301 4.5 9s4.83301 3.33398 7.5 2.00098c2 -3.33301 4.33301 -59 7 -167c2.66699 -120.667 6 -199.667 10 -237c4 -31.333 6 -55.333 6 -72c0 -4.66699 -0.333008 -7.33398 -1 -8.00098
c-1.33301 -2.66699 -2.66602 -4 -3.99902 -4c-5.33301 0 -10.666 28.667 -15.999 86c-2 20.667 -4.33301 43 -7 67s-4.5 43 -5.5 57s-1.5 31.333 -1.5 52c0 9.33301 0.666992 36.666 2 81.999c0.666992 16.667 1 39.334 1 68.001c0 34.667 -0.666992 53.334 -2 56.001z
M203.997 652.999c2.66699 0 5.33398 -2 8.00098 -6c0 -6.66699 -13.333 -53 -40 -139c-28.667 -90.667 -43 -136.334 -43 -137.001c0 -2.66699 6 -4 18 -4c9.33301 0 17 0.333008 23 1c2.66699 0 6 0.166992 10 0.5s6.66699 0.5 8 0.5c14.667 0 22 -1.33301 22 -4
c0 -3.33301 -14.667 -6.66602 -44 -9.99902l-44 -4l-17 -54c-9.33301 -31.333 -15.666 -56.666 -18.999 -75.999c-2 -16 -5.83301 -31 -11.5 -45s-10.5 -21 -14.5 -21s-6 3 -6 9c0 12 8 44.333 24 97c13.333 42.667 20 69 20 79c0 4 -1 6.33301 -3 7
c-4.66699 2 -3.33398 5.66699 3.99902 11s26.666 55 57.999 149c29.333 85.333 44 132.666 44 141.999c0 2.66699 1 4 3 4z" />
    <glyph glyph-name="B" unicode="B" horiz-adv-x="355" 
d="M189 401c2 2 3 3.66602 3 4.99902c0 2 -1.66699 3 -5 3c-8 0 -19 -3.66699 -33 -11c-16.667 -8 -25 -15 -25 -21c0 -2 2.33301 -3 7 -3c5.33301 0 14.5 3.33301 27.5 10s21.5 12.334 25.5 17.001zM135 551.999c7.33301 4.66699 15.3301 6.99023 23.9971 6.99023
c16.667 0 31.334 -9 44.001 -27s19.667 -40.667 21 -68c1.33301 -21.333 3.66602 -32.666 6.99902 -33.999c2 -0.666992 5.33301 -1 10 -1c18 0 32.5 -6.5 43.5 -19.5s16.5 -29.5 16.5 -49.5c0 -12 -2.66699 -26.667 -8 -44c-12.667 -36.667 -54 -79.667 -124 -129
c-31.333 -22.667 -49.666 -34 -54.999 -34c-1.33301 0 -2 0.333008 -2 1c0 1.33301 2 4.33301 6 9c5.33301 6.66699 20.666 18.667 45.999 36c44.667 31.333 76.334 59.333 95.001 84s28.334 50.334 29.001 77.001c0 13.333 -1 22.333 -3 27s-6.66699 10.667 -14 18
c-10.667 10.667 -22 16 -34 16c-12.667 0 -24 -6.33301 -34 -19c-8.66699 -11.333 -20.167 -20.666 -34.5 -27.999s-26.833 -11 -37.5 -11c-9.33301 0 -15 3 -17 9v1c-0.666992 0.666992 -1 1.33398 -1 2.00098c0 6.66699 6.16699 14.334 18.5 23.001
s26.5 15.334 42.5 20.001c16.667 4.66699 27.5 9.83398 32.5 15.501s7.5 14.167 7.5 25.5c0 24 -5.66699 44.333 -17 61s-24.333 25 -39 25c-10 0 -19.333 -4.33301 -28 -13c-12.667 -13.333 -22.5 -38.666 -29.5 -75.999s-13.833 -99.333 -20.5 -186
c-6 -69.333 -11.333 -104 -16 -104c-1.33301 0 -2.33301 1 -3 3c-0.666992 0.666992 -1.5 16.834 -2.5 48.501s-2 69.5 -3 113.5s-1.5 81.667 -1.5 113c0 44.667 1 67 3 67c3.33301 0 5 -21.667 5 -65c0 -69.333 3 -104 9 -104c2.66699 0 5.33398 14.333 8.00098 43
c7.33301 92.667 26 148.334 56 167.001z" />
    <glyph glyph-name="C" unicode="C" horiz-adv-x="412" 
d="M235 516c11.333 2 22.332 3.00098 32.999 3.00098c42.667 0 70.667 -10 84 -30c2.66699 -3.33301 4 -6.33301 4 -9c0 -2 -0.666992 -3 -2 -3c-3.33301 0 -8.33301 3.33301 -15 10c-12 12 -31.667 18 -59 18c-10.667 0 -21.667 -1 -33 -3
c-47.333 -8.66699 -88.666 -31.667 -123.999 -69s-53 -75.333 -53 -114c0 -12.667 2.66699 -25.334 8 -38.001c4.66699 -11.333 15.5 -24.333 32.5 -39s33.5 -25.667 49.5 -33c15.333 -6.66699 36.333 -13 63 -19s48 -9 64 -9c15.333 0 23 -2 23 -6
c0 -3.33301 -7.33301 -5 -22 -5c-36.667 0 -74.667 6 -114 18c-80 26 -120 69.667 -120 131c0 21.333 5.66699 44.166 17 68.499s26 45.5 44 63.5c12.667 12.667 31.5 25.834 56.5 39.501s46.167 22.167 63.5 25.5z" />
    <glyph glyph-name="D" unicode="D" horiz-adv-x="378" 
d="M142 566c12.667 7.33301 26 11.001 40 11.001c36.667 0 70.334 -17 101.001 -51c26.667 -28.667 40 -60.667 40 -96c0 -64.667 -42.667 -128.334 -128 -191.001c-22 -16.667 -49.5 -34.667 -82.5 -54s-52.167 -29 -57.5 -29c-0.666992 0 -1 0.333008 -1 1
c0 2.66699 25 20 75 52c64 42.667 110 80.834 138 114.501s42 67.5 42 101.5s-10.333 64 -31 90c-8 10 -20 19.833 -36 29.5s-30.667 16.167 -44 19.5c-2.66699 0.666992 -7 1 -13 1c-36 0 -63 -26 -81 -78c-5.33301 -16 -8.66602 -32.167 -9.99902 -48.5
s-2 -53.5 -2 -111.5c0 -84 -1 -127 -3 -129s-5.33301 1 -10 9c-4 8 -6 50.333 -6 127v59c0 115.333 1.66699 173 5 173c2 0 3.66699 -12.667 5 -38c1.33301 -24.667 3.66602 -37 6.99902 -37c1.33301 0 3.66602 4.66699 6.99902 14c2.66699 10.667 8.5 22.167 17.5 34.5
s18.167 21.166 27.5 26.499z" />
    <glyph glyph-name="E" unicode="E" horiz-adv-x="359" 
d="M170 572c13.333 6.66699 30.3359 10.0029 51.0029 10.0029c22 0 36.667 -3.33301 44 -10c8 -6.66699 10.667 -11.334 8 -14.001c-2.66699 -4 -5.33398 -3 -8.00098 3c-4 6 -15.667 9 -35 9c-14.667 0 -28.334 -2 -41.001 -6c-24 -8 -47 -25.833 -69 -53.5
s-37.333 -58.834 -46 -93.501c-4.66699 -16.667 -7 -44.334 -7 -83.001c0 -24 1.33301 -37 4 -39h3c7.33301 0 21 1.66699 41 5c14.667 3.33301 27 5 37 5c4.66699 0 7 -0.666992 7 -2c0 -0.666992 -0.666992 -1.66699 -2 -3c-2 -2 -17 -6 -45 -12l-43 -9l-1 -64v-36
c0 -20 2.33301 -30.667 7 -32l1 -1h4c12.667 0 38.667 3.16699 78 9.5s67.666 12.166 84.999 17.499c15.333 4.66699 30 11.334 44 20.001c12 8.66699 18 11.334 18 8.00098c0 -9.33301 -13.333 -21 -40 -35c-13.333 -6.66699 -39.5 -13.667 -78.5 -21
s-70.5 -11.333 -94.5 -12l-38 -1l-2 123v51c0 48 2 82.667 6 104s12.667 45 26 71c23.333 45.333 52 75.666 86 90.999z" />
    <glyph glyph-name="F" unicode="F" horiz-adv-x="416" 
d="M245 615c15.333 4 31.6689 5.99707 49.002 5.99707c24 0 41.333 -3.66699 52 -11c9.33301 -6 14 -10.667 14 -14c0 -0.666992 -0.666992 -1 -2 -1s-5.33301 1.66699 -12 5c-8.66699 4.66699 -23 7 -43 7c-24.667 0 -46 -3.33301 -64 -10c-12.667 -4 -36 -13.667 -70 -29
s-52.667 -24.666 -56 -27.999s-9.16602 -33.833 -17.499 -91.5s-12.5 -95.834 -12.5 -114.501c0 -4 0.333008 -6.33301 1 -7c1.33301 -0.666992 2.33301 -1 3 -1c7.33301 0 20.333 3.33301 39 10c24 8 39.333 12 46 12c3.33301 0 5 -0.666992 5 -2
c0 -3.33301 -17.667 -10.666 -53 -21.999l-46 -15l-8 -83c-6 -54.667 -10 -83 -12 -85c-0.666992 -0.666992 -1.33398 -1 -2.00098 -1c-2 0 -3 4 -3 12c0 15.333 3.33301 54 10 116c17.333 162.667 33.333 264.334 48 305.001
c3.33301 8.66699 6.66602 13.334 9.99902 14.001c3.33301 0 5 -3.33301 5 -10c0 -7.33301 1.33301 -11 4 -11c1.33301 0 16.666 7 45.999 21c30 14.667 53 24 69 28z" />
    <glyph glyph-name="G" unicode="G" horiz-adv-x="403" 
d="M192 551c17.333 6.66699 33.002 10 47.002 10c8 0 16.333 -1.66699 25 -5c9.33301 -4 14 -7.33301 14 -10c0 -1.33301 -1.66699 -2 -5 -2s-6.33301 0.333008 -9 1c-8 2 -16 3 -24 3c-42.667 0 -81.834 -24.333 -117.501 -73s-53.5 -103 -53.5 -163
c0 -32.667 6.83301 -59 20.5 -79s36.167 -37.667 67.5 -53c32.667 -16 64.667 -24 96 -24c29.333 0 52.333 7.33301 69 22c8 7.33301 13 13.333 15 18s3 12.667 3 24c0 28 -11 56.333 -33 85c-7.33301 8.66699 -20 13 -38 13s-27 1.66699 -27 5s10.667 5 32 5h33l21 -38
c16 -30 24 -54.667 24 -74c0 -11.333 -2.33301 -21.333 -7 -30c-15.333 -29.333 -43.333 -44 -84 -44c-12 0 -27 1.66699 -45 5c-108 20.667 -162 76 -162 166c0 50 13.667 98.5 41 145.5s59.666 77.833 96.999 92.5z" />
    <glyph glyph-name="H" unicode="H" horiz-adv-x="431" 
d="M172 350c22.667 22.667 33.999 37 33.999 43c0 1.33301 -1 2 -3 2c-3.33301 0 -14.666 -5.33301 -33.999 -16c-28 -16.667 -44.667 -37 -50 -61c-0.666992 -2.66699 -1 -5.66699 -1 -9s1 -5 3 -5c5.33301 0 22.333 15.333 51 46zM354.999 639
c8.66699 10.667 14.998 11.332 18.998 1.99902v-1c0.666992 -1.33301 1 -2.33301 1 -3c0 -22 -21.667 -78.333 -65 -169c-18 -36 -31.167 -68 -39.5 -96s-19.833 -79.333 -34.5 -154c-0.666992 -2.66699 -1 -5.66699 -1 -9c0 -5.33301 1.33301 -8 4 -8
s6.66699 4.66699 12 14c4 6.66699 6.66699 10 8 10v-1c0 -5.33301 -5 -19.666 -15 -42.999c-13.333 -33.333 -23.333 -50 -30 -50c-2 0 -4 1 -6 3c-0.666992 0.666992 -1 3 -1 7c0 13.333 6.5 50 19.5 110s19.5 92 19.5 96c0 2.66699 -2.33301 1.66699 -7 -3
s-11.667 -12.334 -21 -23.001c-14.667 -16.667 -27.167 -28.167 -37.5 -34.5s-21.833 -9.5 -34.5 -9.5c-9.33301 0 -18.166 -4.16699 -26.499 -12.5s-25.166 -30.5 -50.499 -66.5c-4.66699 -6.66699 -8.33398 -10 -11.001 -10c-3.33301 0 -5 5 -5 15
c0 11.333 2.66699 35.666 8 72.999c10.667 82 23.334 153.5 38.001 214.5s26.334 91.5 35.001 91.5c3.33301 0 3.33301 -3 0 -9c-8.66699 -20 -21 -73.667 -37 -161s-24 -143 -24 -167c0 -5.33301 0.666992 -8 2 -8c2 0 8.66699 7.33301 20 22c10 14 15 24.667 15 32
c0 3.33301 -0.333008 6 -1 8c-0.666992 3.33301 -1 8.33301 -1 15c0 17.333 7.66699 34 23 50c19.333 21.333 47.666 37.333 84.999 48c12 4 21 6 27 6c4 0 6 -1.33301 6 -4c0 -6.66699 -17 -26.667 -51 -60c-35.333 -33.333 -53 -54 -53 -62c0 -1.33301 1.33301 -2 4 -2
s7 1 13 3c20 7.33301 42 27.833 66 61.5s40.333 66.834 49 99.501c24 90.667 50 152.334 78 185.001z" />
    <glyph glyph-name="I" unicode="I" horiz-adv-x="333" 
d="M169 535c3.33301 1.33301 14.668 1.99902 34.001 1.99902c48.667 0 73 -2 73 -6c0 -1.33301 -15.667 -4 -47 -8l-47 -5l-3 -53c-5.33301 -73.333 -8.66602 -125 -9.99902 -155c-4 -79.333 -6.66699 -123.666 -8 -132.999l-3 -32h39c25.333 0 38 -1.66699 38 -5
s-10.333 -5 -31 -5c-56.667 0 -97.667 5 -123 15c-8 2.66699 -12 5 -12 7c0 0.666992 1.66699 1 5 1c7.33301 0 17.666 -1.33301 30.999 -4c17.333 -2.66699 26.666 -4 27.999 -4c5.33301 0 9 1.66699 11 5s5.33301 41.333 10 114c3.33301 70 7 128.333 11 175
c2 25.333 3 45 3 59c0 7.33301 -0.333008 11.333 -1 12c-2 0.666992 -4 1 -6 1c-8 0 -26.333 -1.16699 -55 -3.5s-44.334 -3.5 -47.001 -3.5h-1c-0.666992 0.666992 -1 1.33398 -1 2.00098c0 3.33301 17.667 7.66602 53 12.999c6.66699 1.33301 14.834 2.83301 24.501 4.5
l23 4c5.66699 1 9.5 1.83301 11.5 2.5z" />
    <glyph glyph-name="J" unicode="J" horiz-adv-x="299" 
d="M162 525c12.667 3.33301 30.998 5 54.998 5c20 0 30 -1.33301 30 -4s-3.66699 -4.66699 -11 -6c-2 0 -3.33301 -0.166992 -4 -0.5l-3 -1.5c-1.33301 -0.666992 -2.16602 -1.66699 -2.49902 -3s-0.666016 -3.16602 -0.999023 -5.49902s-0.5 -5.16602 -0.5 -8.49902
c0 -10 2 -37 6 -81c3.33301 -44.667 5 -81.667 5 -111c0 -78 -7.66699 -127.667 -23 -149c-10.667 -14.667 -23.667 -22 -39 -22c-32 0 -62.333 30 -91 90c-18 37.333 -27 62.333 -27 75c0 3.33301 1 5 3 5c2.66699 0 6 -4.33301 10 -13s6 -15.667 6 -21
c0 -12.667 10.5 -33.667 31.5 -63s38.5 -47.333 52.5 -54c8 -4 13.667 -6 17 -6c4 0 8.66699 2.33301 14 7c12 9.33301 19.833 22.166 23.5 38.499s5.5 50.166 5.5 101.499v32c-1.33301 90.667 -3 141.667 -5 153l-5 30h-34c-22.667 0 -34 1.33301 -34 4c0 2 7 4.66699 21 8
z" />
    <glyph glyph-name="K" unicode="K" horiz-adv-x="489" 
d="M260 305c36.667 35.333 52.667 53.002 48 53.002c-6.66699 -0.666992 -24.5 -9.33398 -53.5 -26.001s-49.5 -30.334 -61.5 -41.001c-14.667 -12.667 -22 -24 -22 -34c0 -12.667 2.33301 -19 7 -19c8 0 35.333 22.333 82 67zM229 626.002
c2 4.66699 4.66797 6.50195 8.00098 5.50195s5 -3.83301 5 -8.5s-4.5 -24.167 -13.5 -58.5l-14.5 -55.5c-1.33301 -9.33301 -14.333 -47 -39 -113s-45.667 -119.667 -63 -161c-16.667 -39.333 -25 -61.666 -25 -66.999c0 -2 5.66699 0.666992 17 8s23 15.5 35 24.5
s18.667 14.5 20 16.5c2 3.33301 1 7 -3 11c-3.33301 3.33301 -5 12.333 -5 27c0 9.33301 1.33301 16.666 4 21.999s8.66699 12.666 18 21.999c15.333 15.333 33.333 28.666 54 39.999c88.667 48.667 136.667 73 144 73h2c4 -2 6 -4.33301 6 -7
c0 -10 -29.333 -43.333 -88 -100c-54 -52.667 -81 -81.667 -81 -87c0 -12 37.5 -20 112.5 -24s112.5 -8.33301 112.5 -13c0 -3.33301 -7.66699 -6.83301 -23 -10.5s-30.333 -5.5 -45 -5.5c-48.667 0 -98 8 -148 24l-41 13l-40 -29c-39.333 -28 -63.333 -42 -72 -42
c-2.66699 0 -4.33398 0.333008 -5.00098 1c-4 2 -6 5.33301 -6 10c0 11.333 9.66699 39 29 83c17.333 40 40.333 98.167 69 174.5s43 117.166 43 122.499c0 8.66699 11 43.334 33 104.001z" />
    <glyph glyph-name="L" unicode="L" horiz-adv-x="316" 
d="M55 543c1.33301 1.33301 2.33203 1.99902 2.99902 1.99902c6 0 9 -59.667 9 -179c0 -77.333 0.5 -126 1.5 -146s3.16699 -31.667 6.5 -35c4 -4 23.667 -6 59 -6c9.33301 0 24 0.166992 44 0.5s34 0.5 42 0.5c26.667 0 40 -1.33301 40 -4c0 -3.33301 -1 -5 -3 -5
c-0.666992 0 -3.66699 -0.333008 -9 -1s-13 -1.5 -23 -2.5s-19.333 -1.83301 -28 -2.5c-21.333 -2 -40.666 -3 -57.999 -3c-42 0 -67.667 4.66699 -77 14c-4.66699 4.66699 -7.5 16.334 -8.5 35.001s-1.5 69 -1.5 151c0 118.667 1 179 3 181z" />
    <glyph glyph-name="M" unicode="M" horiz-adv-x="354" 
d="M163 384c1.33301 0 6.00098 14.8398 14.001 44.5068l27 95.5c10 34 17.667 54.667 23 62s9.33301 9.66602 12 6.99902c3.33301 -3.33301 6.66602 -31.666 9.99902 -84.999c7.33301 -108.667 16.666 -176.334 27.999 -203.001c5.33301 -12 10.833 -37.167 16.5 -75.5
s8.5 -67.166 8.5 -86.499c0 -8.66699 -0.666992 -13 -2 -13c-5.33301 0 -10.333 19 -15 57c-3.33301 27.333 -7.83301 54.666 -13.5 81.999s-9.83398 42.666 -12.501 45.999c-4 5.33301 -8 28.166 -12 68.499s-7.66699 79.166 -11 116.499s-6 56 -8 56
c-2.66699 0 -4 -0.333008 -4 -1c0 -2.66699 -7.66699 -33.334 -23 -92.001c-14 -54 -21 -84.667 -21 -92c0 -10 -0.666992 -16.667 -2 -20c-2.66699 -6.66699 -5.66699 -10 -9 -10c-6 0 -10.667 8 -14 24c-2 9.33301 -5.66699 19.333 -11 30
c-2.66699 4.66699 -8.66699 30.667 -18 78s-14 74.666 -14 81.999c0 0.666992 -1.66699 1 -5 1s-7.66602 -12.667 -12.999 -38s-8.66602 -48 -9.99902 -68c-8.66699 -80.667 -13 -158 -13 -232c0 -44.667 -2.33301 -67 -7 -67c-2 0 -4 1.66699 -6 5c-4 6 -6 85.333 -6 238
c0 88 1.33301 132 4 132c3.33301 0 5 -11 5 -33s1.66699 -33 5 -33s5 4 5 12c0 9.33301 3.83301 28.166 11.5 56.499s13.5 45.833 17.5 52.5c3.33301 5.33301 6.33301 8 9 8c8 0 16.667 -27.667 26 -83c14.667 -81.333 24 -122 28 -122z" />
    <glyph glyph-name="N" unicode="N" horiz-adv-x="344" 
d="M288 537c4 0 6 -53.6631 6 -160.996c0 -84.667 -1.33301 -140.667 -4 -168c-3.33301 -30 -6.5 -50.333 -9.5 -61s-7.83301 -16 -14.5 -16h-3c-6 1.33301 -14.5 12 -25.5 32s-41.5 81.333 -91.5 184c-40 82 -61.333 123 -64 123c-2 0 -4.33301 -52 -7 -156
c-1.33301 -74.667 -2.83301 -122.834 -4.5 -144.501s-4.83398 -32.5 -9.50098 -32.5h-2c-5.33301 2 -8 44.667 -8 128c0 48.667 1.66699 73 5 73c4 0 6 17.333 6 52c0 69.333 5 104 15 104c4.66699 0 9.66699 -5 15 -15c8 -12.667 29 -52.834 63 -120.501
s57.667 -116.834 71 -147.501c18.667 -42 31 -63 37 -63s10 14.667 12 44s3.66699 81.666 5 156.999c2.66699 125.333 5.33398 188 8.00098 188z" />
    <glyph glyph-name="O" unicode="O" horiz-adv-x="345" 
d="M224 446c-8 8.66699 -17.333 13.001 -28 13.001c-20 0 -43 -14.333 -69 -43c-39.333 -43.333 -59 -90.333 -59 -141c0 -41.333 14 -74.333 42 -99c21.333 -19.333 44.666 -29 69.999 -29c19.333 0 36.833 6 52.5 18s27.834 28.667 36.501 50
c6.66699 17.333 10 38.666 10 63.999c0 31.333 -5 62.5 -15 93.5s-23.333 55.5 -40 73.5zM102 494.001c14.667 7.33301 29 10.998 43 10.998l74 -33c22 -20 40 -48 54 -84s21 -71.667 21 -107c0 -2 -0.166992 -5 -0.5 -9s-0.5 -7 -0.5 -9
c-2.66699 -38 -13.334 -68 -32.001 -90s-43 -34.333 -73 -37c-1.33301 0 -3.66602 -0.166992 -6.99902 -0.5s-6 -0.5 -8 -0.5c-26 0 -49.667 9.33301 -71 28c-32 27.333 -48 65 -48 113c0 52 18.667 99.667 56 143c10 12 23 23.5 39 34.5s27.667 16.5 35 16.5
c10 0 12 2.66699 6 8c-2.66699 2.66699 -6.66699 5 -12 7c-7.33301 3.33301 -18.333 5 -33 5c-28 0 -47 -5 -57 -15c-8 -7.33301 -12 -9.66602 -12 -6.99902c0 0.666992 0.333008 2.33398 1 5.00098c2 6.66699 10.333 13.667 25 21z" />
    <glyph glyph-name="P" unicode="P" horiz-adv-x="327" 
d="M94 562c10.667 6.66699 22.668 10.001 36.001 10.001c22 0 44.333 -8.66699 67 -26s41 -40 55 -68s21 -53.667 21 -77c0 -28 -9.66699 -51 -29 -69c-21.333 -20.667 -55.666 -33.334 -102.999 -38.001c-6 -0.666992 -13 -1 -21 -1c-8.66699 0 -13 1 -13 3
c0 3.33301 13.333 7 40 11c77.333 11.333 116 42.333 116 93c0 8 -1 16.333 -3 25c-8.66699 38.667 -25.834 71.167 -51.501 97.5s-52.167 39.5 -79.5 39.5c-10.667 0 -21.334 -2.66699 -32.001 -8c-15.333 -8 -24.333 -19.833 -27 -35.5s-4 -63.834 -4 -144.501
c0 -156 -3.33301 -234 -10 -234c-3.33301 0 -5 71 -5 213s1.66699 213 5 213s5 -4 5 -12c0 -6.66699 1.5 -10.667 4.5 -12s5.83301 0.333984 8.5 5.00098c1.33301 2 8 7 20 15z" />
    <glyph glyph-name="Q" unicode="Q" horiz-adv-x="532" 
d="M185 576c10 2 20.0039 2.99805 30.0039 2.99805c36.667 0 73 -11.333 109 -34s63.667 -52 83 -88c16 -31.333 24 -61.666 24 -90.999c0 -55.333 -25.667 -98 -77 -128c-13.333 -7.33301 -20 -14 -20 -20c0 -4 0.333008 -7.33301 1 -10c4.66699 -23.333 17 -51.5 37 -84.5
s43.667 -63.5 71 -91.5c22 -22 33 -34.667 33 -38h-1c-2.66699 0 -10 4 -22 12c-20.667 14 -43.334 38.5 -68.001 73.5s-42.334 68.167 -53.001 99.5l-13 39h-63c-29.333 0.666992 -48.833 1.83398 -58.5 3.50098s-22.5 6.16699 -38.5 13.5
c-32.667 15.333 -58.167 35.666 -76.5 60.999s-27.5 51.333 -27.5 78c0 22.667 6.83301 43.167 20.5 61.5s33.834 32.5 60.501 42.5c22 8 39.667 12 53 12c7.33301 0 11 -1.66699 11 -5s-5 -5 -15 -5c-13.333 0 -29 -4 -47 -12s-31.667 -17.333 -41 -28
c-17.333 -19.333 -26 -41 -26 -65c0 -39.333 20.667 -74.666 62 -105.999c34 -25.333 75.333 -38.333 124 -39h12c21.333 0 34.666 2.33301 39.999 7s8 15.667 8 33c0 18 1.66699 27 5 27s5 -8 5 -24c0 -18.667 2.66699 -28 8 -28c3.33301 0 11.333 4 24 12
c39.333 26 59 62 59 108c0 22.667 -6.33301 48.334 -19 77.001c-13.333 28 -32.5 52.333 -57.5 73s-52.5 35 -82.5 43c-16.667 4.66699 -33 7 -49 7c-34.667 0 -67.334 -15.333 -98.001 -46c-17.333 -17.333 -28 -26 -32 -26v1c0 3.33301 5.66699 11.666 17 24.999
c27.333 32 56.666 51 87.999 57z" />
    <glyph glyph-name="R" unicode="R" horiz-adv-x="348" 
d="M151 592c10.667 6.66699 23.0039 9.99512 37.0039 9.99512c14.667 0 24.334 -3.66699 29.001 -11c5.33301 -7.33301 8 -17 8 -29c0 -34.667 -17 -72 -51 -112l-24 -29l17 -17c16 -17.333 35.667 -68 59 -152c13.333 -46.667 22.666 -76.334 27.999 -89.001
s12.666 -21.667 21.999 -27c10 -5.33301 15 -9.66602 15 -12.999c0 -1.33301 -1.33301 -2 -4 -2s-5 0.333008 -7 1c-16.667 4.66699 -28.834 14.5 -36.501 29.5s-19.5 52.833 -35.5 113.5c-24 88.667 -45 134.667 -63 138h-2c-8 0 -18 -3.66699 -30 -11
c-12.667 -8.66699 -20 -13 -22 -13s-3 2 -3 6s9.33301 13.333 28 28c28 21.333 51.167 46.833 69.5 76.5s27.5 54.5 27.5 74.5c0 18.667 -8.33301 28 -25 28c-19.333 0 -37.5 -10.333 -54.5 -31s-30.5 -49 -40.5 -85c-6.66699 -21.333 -11.667 -69 -15 -143
c-3.33301 -65.333 -6 -106.166 -8 -122.499s-5.66699 -24.5 -11 -24.5c-4 0 -6 6.66699 -6 20c0 0.666992 0.666992 18.334 2 53.001c1.33301 24 3.16602 50.167 5.49902 78.5s4.16602 54.333 5.49902 78s2 50.5 2 80.5c0 50.667 1 78.334 3 83.001c2 5.33301 3.66699 8 5 8
c2.66699 0 4 -8 4 -24c0 -2 -0.166992 -5.66699 -0.5 -11s-0.5 -9.66602 -0.5 -12.999c-0.666992 -5.33301 -1 -12.666 -1 -21.999c0 -18 1 -27 3 -27s6.33301 8.33301 13 25c12.667 35.333 31.667 61 57 77z" />
    <glyph glyph-name="S" unicode="S" horiz-adv-x="373" 
d="M57 183c0 2 1 3 3 3c1.33301 0 2 -1 2 -3c0 -1.33301 -0.666992 -2 -2 -2c-2 0 -3 0.666992 -3 2zM160 549c6.66699 4.66699 17.6689 7 33.002 7c19.333 0 40 -3.5 62 -10.5s38.333 -15.5 49 -25.5c8 -7.33301 12 -12.333 12 -15c0 -0.666992 -0.333008 -1 -1 -1
c-2.66699 0 -7.66699 2.66699 -15 8c-22.667 16.667 -53.667 27.334 -93 32.001c-10.667 1.33301 -17 2 -19 2c-6.66699 0 -13 -3 -19 -9s-9 -12.333 -9 -19c0 -10 13 -42 39 -96c21.333 -43.333 35.166 -72.666 41.499 -87.999s11.166 -32.666 14.499 -51.999
c2 -8.66699 3 -17.334 3 -26.001c0 -30 -10.333 -53.5 -31 -70.5s-49.667 -25.5 -87 -25.5h-3c-35.333 1.33301 -57.333 6.33301 -66 15l-1 1c0 1.33301 4.66699 2 14 2c12 0 22.667 -0.333008 32 -1c3.33301 0 7.66602 -0.166992 12.999 -0.5s9.33301 -0.5 12 -0.5
c34.667 0 60.334 7.33301 77.001 22c17.333 15.333 26 34.666 26 57.999c0 34 -20 89 -60 165c-24 46.667 -36 78 -36 94c0 17.333 4 28.666 12 33.999z" />
    <glyph glyph-name="T" unicode="T" horiz-adv-x="515" 
d="M181 513c27.333 4.66699 85.001 7.00098 173.001 7.00098c41.333 0 67 -0.666992 77 -2c18 -2.66699 27 -6.33398 27 -11.001c0 -5.33301 -7 -6.66602 -21 -3.99902c-6.66699 1.33301 -35.334 3.33301 -86.001 6l-64 3l-4 -22c-1.33301 -8 -4 -52.667 -8 -134
c-6 -122.667 -11.333 -184 -16 -184h-1c-3.33301 2 -5 8.66699 -5 20c0 12 2 43 6 93c3.33301 45.333 6.33301 95 9 149l4 78l-43 -3c-56.667 -4.66699 -102.334 -12.667 -137.001 -24c-12 -3.33301 -21 -5 -27 -5c-5.33301 0 -8 1 -8 3l2 2
c8.66699 7.33301 49.334 16.666 122.001 27.999z" />
    <glyph glyph-name="U" unicode="U" horiz-adv-x="356" 
d="M291 441c0.666992 36 2.33301 54 5 54c4 0 6 -23.333 6 -70c-0.666992 -66 -14.667 -127 -42 -183c-15.333 -32.667 -33.833 -58 -55.5 -76s-43.5 -27 -65.5 -27c-15.333 0 -28.333 3.66699 -39 11c-31.333 18.667 -47 68.334 -47 149.001c0 21.333 1 45 3 71
c3.33301 50 5 84 5 102c0 12 1.33301 18 4 18s4 -30 4 -90v-38v-35c0 -55.333 1.83301 -91.833 5.5 -109.5s11.834 -32.834 24.501 -45.501c11.333 -11.333 24.333 -17 39 -17c40 0 75.167 28.667 105.5 86s46.166 124 47.499 200z" />
    <glyph glyph-name="V" unicode="V" horiz-adv-x="367" 
d="M303 512c2 2.66699 4.33496 2.66992 7.00195 0.00292969c0.666992 -0.666992 1 -2 1 -4c0 -16 -12.333 -63.833 -37 -143.5s-43.667 -133.167 -57 -160.5c-18 -36 -35.333 -54 -52 -54c-8.66699 0 -16.334 4 -23.001 12c-10.667 11.333 -26.334 51.166 -47.001 119.499
s-33 120.833 -37 157.5c-1.33301 13.333 -2 20.666 -2 21.999c0 6 0.666992 9 2 9c4 0 9.66699 -18.333 17 -55c10 -50.667 24 -102.834 42 -156.501s31.667 -83.5 41 -89.5c1.33301 -1.33301 3.66602 -2 6.99902 -2c12 0 26.5 19.5 43.5 58.5s38.833 103.5 65.5 193.5
c18.667 61.333 28.334 92.333 29.001 93z" />
    <glyph glyph-name="W" unicode="W" horiz-adv-x="477" 
d="M69 502c2 6 3.66602 8.99805 4.99902 8.99805c2 0 3 -2.66699 3 -8c0 -1.33301 -0.666992 -6 -2 -14c-4.66699 -25.333 -7 -60.333 -7 -105c0 -74.667 5.33301 -127.334 16 -158.001c4.66699 -14.667 10.334 -25 17.001 -31s15.667 -10 27 -12
c2.66699 -0.666992 6 -1 10 -1c6 0 14.667 4.66699 26 14c20.667 18.667 32.667 38 36 58c9.33301 54.667 16.333 82 21 82c2.66699 0 5.33398 -11 8.00098 -33c3.33301 -35.333 13.833 -63.833 31.5 -85.5s37.834 -32.5 60.501 -32.5c23.333 0 44.333 11 63 33
c18.667 21.333 28 56.333 28 105c0 34.667 -3 62.834 -9 84.501s-18 48.167 -36 79.5c-6.66699 12.667 -5.66699 19 3 19c3.33301 0 11.166 -13.667 23.499 -41s20.833 -49.666 25.5 -66.999c4.66699 -20 7 -40 7 -60c0 -2.66699 -0.166992 -7 -0.5 -13
s-0.5 -10.667 -0.5 -14c-1.33301 -26 -2.83301 -43.5 -4.5 -52.5s-5.83398 -19.5 -12.501 -31.5c-8.66699 -17.333 -20.667 -30.833 -36 -40.5s-31.333 -14.5 -48 -14.5c-11.333 0 -22.333 2.66699 -33 8c-12 6 -24 15.5 -36 28.5s-20.667 25.5 -26 37.5
c-4.66699 10.667 -8.33398 16 -11.001 16c-4 0 -6 -7.66699 -6 -23c0 -5.33301 -5 -15.166 -15 -29.499s-19 -24.833 -27 -31.5c-12.667 -8.66699 -23 -13 -31 -13c-1.33301 0 -3.33301 0.166992 -6 0.5s-5 0.5 -7 0.5c-15.333 1.33301 -27.166 6 -35.499 14
s-15.833 21.667 -22.5 41c-9.33301 26.667 -14 70 -14 130c0 66 5 116.333 15 151z" />
    <glyph glyph-name="X" unicode="X" horiz-adv-x="418" 
d="M271 483c52 72.667 79.666 109.001 82.999 109.001c0.666992 0 1 -0.333008 1 -1c0 -9.33301 -35.667 -64.666 -107 -165.999c-28.667 -40 -43 -63.333 -43 -70c0 -2 1 -4 3 -6c40 -46 76 -90.833 108 -134.5s47.667 -69.834 47 -78.501c0 -3.33301 -0.333008 -5 -1 -5
c-1.33301 0 -20 24.333 -56 73c-25.333 34 -49.833 64.667 -73.5 92s-37.834 41 -42.501 41h-1c-2.66699 -0.666992 -20.667 -23.334 -54 -68.001c-47.333 -65.333 -73 -98 -77 -98l-2 1c-4 4 21.667 44.333 77 121c28.667 40 43 61 43 63c0 4 -12.667 21 -38 51
s-44 55.333 -56 76s-18 36 -18 46c0 4.66699 1.66699 7 5 7s5 -2.33301 5 -7c0 -8.66699 17.333 -36.667 52 -84s55.334 -71 62.001 -71c2.66699 0 30.334 36.333 83.001 109z" />
    <glyph glyph-name="Y" unicode="Y" horiz-adv-x="399" 
d="M323 597c6 8 11.667 12 17 12c1.33301 0 2 -1 2 -3c0 -3.33301 -2 -7 -6 -11c-18 -20 -46.5 -79 -85.5 -177s-67.833 -183.333 -86.5 -256c-6 -24.667 -11 -37 -15 -37c-1.33301 0 -2 3.33301 -2 10c0 40.667 22.333 119.5 67 236.5s81 192.167 109 225.5zM58 606
c-0.666992 2 -0.999023 4.33398 -0.999023 7.00098c0 3.33301 1 5 3 5c5.33301 0 11.333 -6.33301 18 -19c7.33301 -14.667 37.666 -61.667 90.999 -141c22.667 -32 34 -50 34 -54c0 -3.33301 -0.666992 -5 -2 -5c-6 0 -32.667 33 -80 99
c-11.333 15.333 -24 35.166 -38 59.499s-22.333 40.5 -25 48.5z" />
    <glyph glyph-name="Z" unicode="Z" horiz-adv-x="471" 
d="M173 518c3.33301 0.666992 18.001 1.00586 44.001 1.00586h29c39.333 -0.666992 70.666 -5 93.999 -13s35 -18 35 -30c0 -6.66699 -3.66699 -13.334 -11 -20.001c-8.66699 -7.33301 -38.334 -24 -89.001 -50c-47.333 -24 -83.333 -45.167 -108 -63.5
s-44 -37.833 -58 -58.5c-24 -36 -36 -62.667 -36 -80c0 -2.66699 0.666992 -5.33398 2 -8.00098c6.66699 -10.667 38.5 -17.334 95.5 -20.001s112.167 -4.33398 165.5 -5.00098s80 -4 80 -10c0 -5.33301 -49.667 -8 -149 -8c-44 0 -74 0.666992 -90 2
c-39.333 2.66699 -67.166 6.16699 -83.499 10.5s-27.833 11.166 -34.5 20.499c-3.33301 4 -5 10.667 -5 20c0 22.667 12.667 50.667 38 84s55 60.666 89 81.999c20 13.333 55.667 33 107 59c46.667 24 70 38.667 70 44c0 8 -11.5 14.667 -34.5 20s-52.167 8 -87.5 8h-10
c-58.667 0 -101.667 -8.66699 -129 -26c-8 -5.33301 -13.667 -6.33301 -17 -3c-0.666992 0.666992 -1 1.33398 -1 2.00098c0 5.33301 10.333 12.666 31 21.999s41.667 16 63 20z" />
    <glyph glyph-name="bracketleft" unicode="[" horiz-adv-x="389" 
d="M132 658c22 2.66699 41 4.00098 57 4.00098c14.667 0 22 -1.33301 22 -4c0 -6.66699 -18.667 -10 -56 -10c-40.667 0 -66.667 -7.33301 -78 -22c-5.33301 -7.33301 -8 -50.666 -8 -129.999c0 -94.667 3.33301 -178.334 10 -251.001
c6.66699 -64.667 10.667 -116.667 12 -156l1 -43l118 -2c82 -2 123 -4.66699 123 -8c0 -2.66699 -15.833 -5 -47.5 -7s-65.167 -3 -100.5 -3c-19.333 0 -41 0.666992 -65 2l-43 3l-4 84c-0.666992 22 -4 75 -10 159s-9 157 -9 219c0 60 0.5 97.667 1.5 113
s3.5 24.666 7.5 27.999c13.333 12.667 36.333 20.667 69 24z" />
    <glyph glyph-name="backslash" unicode="\" horiz-adv-x="650" 
d="M57 646c0 8 1.33301 11.999 4 11.999c4 0 7 -5 9 -15c4.66699 -20 27 -54.667 67 -104s108 -125.666 204 -228.999c169.333 -182 254 -274.667 254 -278c0 -2.66699 -1 -4 -3 -4c-5.33301 0 -21 13.333 -47 40c-186.667 196 -314.667 335.167 -384 417.5
s-104 135.833 -104 160.5z" />
    <glyph glyph-name="bracketright" unicode="]" horiz-adv-x="296" 
d="M187 637c24 2.66699 37.3291 4.00195 39.9961 4.00195c11.333 0 17 -3 17 -9c0 -3.33301 -1.66699 -9.33301 -5 -18c-7.33301 -16.667 -12.666 -186.334 -15.999 -509.001c-1.33301 -78 -3 -118.333 -5 -121c-3.33301 -6 -18.666 -11.667 -45.999 -17s-51 -8 -71 -8
c-15.333 0 -23 2.33301 -23 7c0 2 3.5 3.83301 10.5 5.5s29.5 5.16699 67.5 10.5c22.667 3.33301 36.334 7.33301 41.001 12c4 4 7.33301 90.667 10 260c2.66699 178 5.33398 281 8.00098 309c2.66699 29.333 4 46.666 4 51.999c0 4 -0.333008 6 -1 6l-38 -3
c-24.667 -1.33301 -50 -2.83301 -76 -4.5s-40.333 -2.5 -43 -2.5c-2 0 -3 1 -3 3c0 5.33301 17.667 10 53 14z" />
    <glyph glyph-name="asciicircum" unicode="^" horiz-adv-x="294" 
d="M135 672c4 4 7 5.99902 9 5.99902c6.66699 0 27 -29.333 61 -88c25.333 -42.667 38 -68.667 38 -78c0 -4 -2.33301 -6 -7 -6c-4 0 -18.667 21.667 -44 65c-30.667 51.333 -47 77 -49 77c-0.666992 0 -2 -1 -4 -3c-3.33301 -3.33301 -15.333 -30.666 -36 -81.999
c-24 -57.333 -38.667 -86 -44 -86c-2 0 -3 1.33301 -3 4c0 9.33301 11.167 41 33.5 95s37.5 86 45.5 96z" />
    <glyph glyph-name="underscore" unicode="_" horiz-adv-x="519" 
d="M200 -3c44.667 3.33301 103.333 5.00098 176 5.00098c62 0 93 -1.33301 93 -4c0 -1.33301 -28.167 -3 -84.5 -5s-118.333 -5 -186 -9s-112.167 -9 -133.5 -15c-8 -2 -12 -1 -12 3c0 3.33301 16 7.66602 48 12.999s65 9.33301 99 12z" />
    <glyph glyph-name="grave" unicode="`" horiz-adv-x="197" 
d="M55 659c0 2.66699 1.33203 4 3.99902 4c8.66699 0 23.334 -6.66699 44.001 -20c28 -18 42 -29 42 -33c0 -0.666992 -0.666992 -1 -2 -1c-4 0 -16.333 5.33301 -37 16c-34 18.667 -51 30 -51 34z" />
    <glyph glyph-name="a" unicode="a" horiz-adv-x="374" 
d="M110 368c8.66699 6 18.3281 9.00488 28.9951 9.00488c6 0 9 -1.33301 9 -4c0 -4.66699 -3.66699 -6.33398 -11 -5.00098h-2c-13.333 0 -27.166 -12.5 -41.499 -37.5s-22.5 -50.5 -24.5 -76.5c-0.666992 -4.66699 -1 -10.334 -1 -17.001
c0 -9.33301 3.33301 -18.333 10 -27c7.33301 -9.33301 16 -14 26 -14c10.667 0 20.667 4.33301 30 13c18.667 16.667 28.334 38 29.001 64c0.666992 14 3.33398 27.333 8.00098 40s9.33398 19 14.001 19h1c5.33301 -2 8 -10 8 -24c0 -12 -2 -24.333 -6 -37
c-3.33301 -10 -5 -18 -5 -24c0 -6.66699 1.66699 -12.334 5 -17.001c11.333 -22.667 34.666 -34 69.999 -34c18 0 33.333 4.33301 46 13c10.667 7.33301 16.334 10.666 17.001 9.99902c0 -0.666992 -1.66699 -3.33398 -5 -8.00098c-14 -21.333 -34.667 -32 -62 -32
c-24.667 0 -47.334 9.66699 -68.001 29l-17 15l-16 -15c-20 -18 -37.333 -27 -52 -27s-26.167 5.66699 -34.5 17s-12.5 26.333 -12.5 45c0 7.33301 0.333008 13 1 17c2.66699 18.667 9.83398 39.667 21.501 63s22.834 38.333 33.501 45z" />
    <glyph glyph-name="b" unicode="b" horiz-adv-x="288" 
d="M52 626l0.00292969 11.998c0 20 1 30 3 30c6 0 11 -28.5 15 -85.5s6 -126.833 6 -209.5c0 -104.667 1 -157 3 -157c1.33301 0 9.66602 13.667 24.999 41c26 47.333 48.667 71 68 71c15.333 0 29.833 -9 43.5 -27s20.5 -37.333 20.5 -58c0 -12.667 -4.66699 -28 -14 -46
s-19.333 -31.333 -30 -40c-10.667 -8 -24.334 -15.333 -41.001 -22s-29.667 -10 -39 -10c-8 0 -12 1 -12 3c0 4 7.33301 7 22 9c30 4.66699 54.833 17.167 74.5 37.5s29.5 42.833 29.5 67.5c0 14 -3.33301 27.333 -10 40c-10.667 20.667 -24.667 31 -42 31
c-8 0 -16.5 -5.16699 -25.5 -15.5s-21.167 -29.166 -36.5 -56.499c-28.667 -49.333 -47.334 -74 -56.001 -74c-3.33301 0 -5 3.33301 -5 10c0 6 1 13.333 3 22c6 28.667 9 121.667 9 279c0 58.667 -1 90.334 -3 95.001c-4 8 -6.66699 25.667 -8 53z" />
    <glyph glyph-name="c" unicode="c" horiz-adv-x="324" 
d="M265 163c0 1.33301 0.666992 2 2 2c2 0 3 -0.666992 3 -2c0 -2 -1 -3 -3 -3c-1.33301 0 -2 1 -2 3zM187 351c13.333 4 26 6.00488 38 6.00488c22.667 0 34 -4.66699 34 -14c0 -0.666992 -0.666992 -2.33398 -2 -5.00098c-3.33301 -4.66699 -6 -6.33398 -8 -5.00098
s-3 4.33301 -3 9c0 4 -4 6 -12 6c-15.333 0 -35 -5.66699 -59 -17c-30.667 -15.333 -55.834 -35.333 -75.501 -60s-29.5 -48 -29.5 -70c0 -8.66699 1.33301 -16 4 -22c10 -24 34.333 -36 73 -36c26 0 59 5 99 15c6.66699 1.33301 10.334 2 11.001 2c2 0 3 -0.333008 3 -1
c0 -4.66699 -13.333 -11 -40 -19c-24 -8 -49.333 -12 -76 -12c-24 0 -41.333 3.33301 -52 10c-25.333 15.333 -38 35.666 -38 60.999c0 29.333 15.667 60.666 47 93.999c25.333 27.333 54 46.666 86 57.999z" />
    <glyph glyph-name="d" unicode="d" horiz-adv-x="339" 
d="M179 259c0 5.33301 -2.99902 8 -8.99902 8c-5.33301 0 -15.333 -3.66699 -30 -11c-26 -12.667 -46.333 -35.334 -61 -68.001c-8 -17.333 -12 -31 -12 -41c0 -10.667 4.33301 -16 13 -16c3.33301 0 8.33301 1.66699 15 5c11.333 6 28.166 25.333 50.499 58
s33.5 54.334 33.5 65.001zM260.001 583c3.33301 5.33301 5.99902 8.00293 7.99902 8.00293c6 0 9.66699 -11 11 -33v-14c0 -26.667 -8 -72.334 -24 -137.001c-6 -26 -11.667 -60.667 -17 -104s-8 -76.666 -8 -99.999v-12c0.666992 -8.66699 2.33398 -13.834 5.00098 -15.501
s10.667 -3.83398 24 -6.50098c17.333 -4 26 -7.33301 26 -10s-9.66699 -4 -29 -4c-18.667 0 -31 2.66699 -37 8s-9 16.666 -9 33.999c0 10.667 0.333008 19.667 1 27c0.666992 6.66699 1 15.667 1 27c0 14 -0.666992 21 -2 21c-2.66699 0 -7 -6.33301 -13 -19
c-16.667 -35.333 -37 -67 -61 -95s-42.667 -42 -56 -42h-2c-16 2 -24 13 -24 33c0 20.667 8.66699 44.334 26 71.001c22.667 35.333 51 53.666 85 54.999h26l16 41c10.667 26.667 18 57 22 91s9.33301 70.333 16 109s11.667 61 15 67z" />
    <glyph glyph-name="e" unicode="e" horiz-adv-x="343" 
d="M104 345c14.667 12.667 27.667 19 39 19c10.667 0 19.667 -4.66699 27 -14c5.33301 -6 8 -14.333 8 -25c0 -17.333 -7.33301 -33.833 -22 -49.5s-31.334 -23.5 -50.001 -23.5c-11.333 0 -17 1.66699 -17 5c0 2.66699 4.66699 5 14 7c22.667 4.66699 39.667 15.667 51 33
c7.33301 10 11 19.667 11 29c0 14.667 -8.66699 22 -26 22c-10 0 -21.5 -7.66699 -34.5 -23s-22.5 -32.666 -28.5 -51.999c-4.66699 -17.333 -7 -33 -7 -47c0 -24 4.66699 -42.333 14 -55c14.667 -20 35 -30 61 -30c34 0 72.333 16.333 115 49c14 11.333 23.333 17 28 17
c1.33301 0 2 -0.333008 2 -1c0 -5.33301 -10 -17 -30 -35c-34.667 -31.333 -73 -47 -115 -47c-31.333 0 -54.666 9.66699 -69.999 29c-13.333 17.333 -20 40.666 -20 69.999c0 51.333 16.667 92 50 122z" />
    <glyph glyph-name="f" unicode="f" horiz-adv-x="372" 
d="M169 580c6.66699 8 16.4971 15.332 29.4971 21.999s24.833 10 35.5 10s24.334 -2.83301 41.001 -8.5s27.334 -11.167 32.001 -16.5c4.66699 -4.66699 7 -8.66699 7 -12c0 -2.66699 -1.33301 -4 -4 -4c-3.33301 0 -9.33301 2.66699 -18 8
c-15.333 10.667 -33.333 16 -54 16c-25.333 0 -44.333 -8.33301 -57 -25c-11.333 -15.333 -21.166 -41.166 -29.499 -77.499s-13.5 -74.833 -15.5 -115.5l-1 -35l47 1h15c21.333 0 32 -1.33301 32 -4c0 -4 -13.333 -6 -40 -6h-4c-27.333 0 -43.166 -3.66699 -47.499 -11
s-6.83301 -33 -7.5 -77c-1.33301 -50 -3.33301 -75 -6 -75c-1.33301 0 -3 4 -5 12c-1.33301 4 -2.66602 29.667 -3.99902 77l-1 66l-12 -1c-10.667 -2.66699 -23.334 -4 -38.001 -4c-5.33301 0 -8 0.666992 -8 2c0 2.66699 7.66699 5.33398 23 8.00098
c17.333 3.33301 28.166 8.16602 32.499 14.499s7.83301 22.833 10.5 49.5c10 96.667 25.667 158.667 47 186z" />
    <glyph glyph-name="g" unicode="g" horiz-adv-x="279" 
d="M113 333c9.33301 6.66699 20.667 9.99805 34 9.99805c9.33301 0 16 -2.33301 20 -7c3.33301 -4 1.66602 -6 -5.00098 -6c-2.66699 0 -6.33398 0.333008 -11.001 1c-3.33301 0.666992 -7.66602 1 -12.999 1c-8 0 -16.333 -4.33301 -25 -13
c-16.667 -18 -25 -39.667 -25 -65c0 -5.33301 0.333008 -9 1 -11c6 -24.667 20.333 -37 43 -37c14 0 26.667 5.33301 38 16c8 6.66699 13 12.334 15 17.001s3 12.334 3 23.001c0 17.333 4 30.333 12 39c6.66699 7.33301 12.334 11 17.001 11c6.66699 0 10 -5.66699 10 -17
c0 -10 -3 -22.667 -9 -38c-5.33301 -12 -8 -20.667 -8 -26c0 -2 2.33301 -16 7 -42c6 -30 9 -64 9 -102v-8c0 -31.333 -3.33301 -54.666 -10 -69.999s-19 -29 -37 -41c-24 -16 -50 -24 -78 -24c-21.333 0 -36 5 -44 15c-0.666992 0.666992 -1 1.33398 -1 2.00098
c0 2.66699 12.333 4 37 4c28 0 48.667 3.66699 62 11c24.667 13.333 40.667 29.666 48 48.999c3.33301 7.33301 5 25.666 5 54.999s-1.66699 57.833 -5 85.5s-7.33301 42.5 -12 44.5c-6 1.33301 -14 -1.33398 -24 -8.00098c-12.667 -7.33301 -26.667 -11 -42 -11
c-9.33301 0 -17.333 1.66699 -24 5c-16.667 8.66699 -25 27.334 -25 56.001c0 38.667 12.333 65.667 37 81z" />
    <glyph glyph-name="h" unicode="h" horiz-adv-x="306" 
d="M53 434c-1.33301 74.667 -2.00293 115.666 -2.00293 122.999c0 30 1 45 3 45c6.66699 0 11.334 -56.667 14.001 -170c3.33301 -140.667 7.33301 -211 12 -211c2 0 7.33301 12 16 36c6.66699 20 16.5 38.333 29.5 55s25.167 26.334 36.5 29.001c2 0.666992 4.66699 1 8 1
c26.667 0 45.334 -42 56.001 -126c6 -40 12 -64 18 -72c5.33301 -7.33301 8 -12.333 8 -15c0 -2 -1 -3 -3 -3c-2.66699 0 -7 2 -13 6c-7.33301 5.33301 -13 14.333 -17 27s-8.33301 38 -13 76c-4.66699 34 -9.66699 57.167 -15 69.5s-13 18.5 -23 18.5
c-29.333 0 -54.666 -45.667 -75.999 -137c-9.33301 -39.333 -16.666 -59 -21.999 -59c-4.66699 0 -7.83398 18.333 -9.50098 55s-4.16699 120.667 -7.5 252z" />
    <glyph glyph-name="i" unicode="i" horiz-adv-x="202" 
d="M65 269c6 62.667 10 93.999 12 93.999c2.66699 0 4 -6.33301 4 -19c0 -14 -2 -52 -6 -114c-3.33301 -59.333 -7 -89.666 -11 -90.999h-1c-3.33301 0 -5 8 -5 24c0 22 2.33301 57.333 7 106zM54 564.999c-1.33301 4.66699 -1.66895 7.83301 -1.00195 9.5
s2.33398 2.16699 5.00098 1.5c4.66699 -2 9.33398 -14.333 14.001 -37c6 -22 10 -33.333 12 -34c4 0 10.667 8.66699 20 26c16 29.333 27.333 44 34 44c2 0 3.66699 -0.666992 5 -2c4 -4 1 -13.333 -9 -28c-2.66699 -3.33301 -12.334 -18.666 -29.001 -45.999
c-10 -18.667 -17.667 -28 -23 -28s-11.333 15 -18 45c-5.33301 29.333 -8.66602 45.666 -9.99902 48.999z" />
    <glyph glyph-name="j" unicode="j" horiz-adv-x="233" 
d="M144 250c0 8 1 12.002 3 12.002s5.16699 -6.33301 9.5 -19s8.66602 -29 12.999 -49s7.5 -39.667 9.5 -59c1.33301 -14.667 2 -26.667 2 -36c0 -44 -5.33301 -78.333 -16 -103c-6.66699 -15.333 -14.167 -26 -22.5 -32s-19.166 -9 -32.499 -9
c-14.667 0 -27.334 5.66699 -38.001 17c-10 11.333 -15 21.666 -15 30.999c0 3.33301 1 5 3 5h1c2.66699 -1.33301 7.33398 -7 14.001 -17s14.667 -16.667 24 -20c5.33301 -1.33301 9.33301 -2 12 -2c16.667 0 30 12 40 36s15 54.333 15 91
c0 35.333 -4.33301 70.333 -13 105c-6 25.333 -9 41.666 -9 48.999zM145 407.002c6 7.33301 11.999 10.999 17.999 10.999c6.66699 0 10 -2.66699 10 -8c0 -4.66699 -8.16699 -16.167 -24.5 -34.5s-26.5 -27.5 -30.5 -27.5c-2.66699 0 -7 4.33301 -13 13
c-3.33301 4.66699 -5 9.33398 -5 14.001s1.33301 7 4 7s5.33398 -1.33301 8.00098 -4c2 -2 4 -3 6 -3c3.33301 0 12.333 10.667 27 32z" />
    <glyph glyph-name="k" unicode="k" horiz-adv-x="383" 
d="M83 213c-4 8.66699 -7.66699 13.002 -11 13.002c-4 0 -6 -4.66699 -6 -14c0 -8.66699 1.33301 -14.334 4 -17.001s6.66699 -2.33398 12 0.999023c4.66699 3.33301 5 9 1 17zM255 345.002c4 4.66699 6.00098 8.33105 6.00098 10.998c0 1.33301 -1 2 -3 2
c-4 0 -21 -8 -51 -24c-34.667 -18.667 -62.334 -37.167 -83.001 -55.5s-31 -33.166 -31 -44.499c0 -2.66699 1.33301 -6 4 -10c5.33301 -5.33301 9.33301 -8 12 -8c7.33301 0 30.5 17.333 69.5 52s64.5 60.334 76.5 77.001zM127.001 548.999
c3.33301 4 6.00391 6.00293 8.00391 6.00293s3 -3 3 -9c0 -20 -16.667 -96.667 -50 -230c-6.66699 -24.667 -10 -41.334 -10 -50.001l1 -3h1c2.66699 0 11.667 7 27 21c24.667 23.333 55 44.833 91 64.5s62 29.5 78 29.5c5.33301 0 9 -1.33301 11 -4
c0.666992 -0.666992 1 -2 1 -4c0 -9.33301 -10.333 -25.833 -31 -49.5s-46 -47.834 -76 -72.501c-30.667 -26 -46 -40.667 -46 -44c0 -7.33301 38 -21.333 114 -42c50.667 -14 76 -24.667 76 -32c0 -1.33301 -0.333008 -2.33301 -1 -3h-2c-8 0 -34.333 6 -79 18
s-77.334 22 -98.001 30s-34 12 -40 12c-4.66699 0 -9.33398 -1.33301 -14.001 -4c-10 -5.33301 -18.667 -7.33301 -26 -6s-11 9.66602 -11 24.999c0 24.667 10.667 80 32 166c21.333 84.667 32.666 135 33.999 151c1.33301 16.667 3.66602 26.667 6.99902 30z" />
    <glyph glyph-name="l" unicode="l" horiz-adv-x="133" 
d="M70 637c1.33301 7.33301 3.66699 11 7 11s5 -3.66699 5 -11c-0.666992 -36.667 -3.5 -125.5 -8.5 -266.5s-8.16699 -213.833 -9.5 -218.5c-2 -8 -5 -12 -9 -12c-2 0 -3 12.333 -3 37c0 6.66699 0.666992 38 2 94c6 223.333 11.333 345.333 16 366z" />
    <glyph glyph-name="m" unicode="m" horiz-adv-x="335" 
d="M128 339c6 6.66699 10.998 9.99902 14.998 9.99902c11.333 0 17 -20.333 17 -61c0 -27.333 1.33301 -41 4 -41c1.33301 0.666992 10 12 26 34c18.667 27.333 31.667 41 39 41c3.33301 0 7 -2 11 -6c6 -6 9.66699 -36.333 11 -91l3 -82l14 -7
c8.66699 -4 13 -7.66699 13 -11s-4.66699 -5 -14 -5c-12.667 0 -20.667 5.16699 -24 15.5s-5.66602 37.833 -6.99902 82.5c-2 55.333 -5 83 -9 83c-3.33301 0 -11.666 -9 -24.999 -27c-22 -30.667 -36.667 -46 -44 -46c-1.33301 0 -2.66602 0.666992 -3.99902 2
c-2.66699 2.66699 -5.33398 20 -8.00098 52c-1.33301 30.667 -3.66602 46 -6.99902 46s-11.833 -14.5 -25.5 -43.5s-24.834 -56.167 -33.501 -81.5c-10 -28.667 -17 -43 -21 -43c-4.66699 0 -6 5.66699 -4 17c0.666992 4 2.66699 23.667 6 59c2 28 5.33301 42 10 42
c2 0 3 -6.33301 3 -19c0 -11.333 1.66699 -17 5 -17s5 1.66699 5 5c0 4.66699 6.16699 19.834 18.5 45.501s20.833 41.167 25.5 46.5z" />
    <glyph glyph-name="n" unicode="n" horiz-adv-x="229" 
d="M87 262c18.667 40 36.335 59.9971 53.002 59.9971c6 0 12 -4 18 -12c5.33301 -7.33301 9.33301 -37.666 12 -90.999c2.66699 -51.333 5 -79.666 7 -84.999c2 -6 1.66699 -9 -1 -9c-4 0.666992 -8 4 -12 10c-3.33301 6.66699 -5 24 -5 52
c-1.33301 70 -6.33301 109.333 -15 118c-0.666992 0.666992 -1.66699 1 -3 1c-8.66699 0 -21.5 -15.167 -38.5 -45.5s-28.167 -58.5 -33.5 -84.5c-2.66699 -10.667 -5.66699 -16 -9 -16c-4 0 -6 7.33301 -6 22c0 12 0.333008 22.333 1 31c3.33301 56 7.66602 84 12.999 84
c1.33301 0 2 -3 2 -9c0 -3.33301 -0.333008 -9.66602 -1 -18.999s-1 -16 -1 -20c0 -8 1 -12 3 -12c3.33301 0 8.66602 8.33301 15.999 25z" />
    <glyph glyph-name="o" unicode="o" horiz-adv-x="265" 
d="M98 305c14 14.667 22.665 22.001 25.998 22.001c0.666992 0 1 -0.333008 1 -1c0 -2 -4.66699 -8.66699 -14 -20c-28.667 -35.333 -43 -69 -43 -101c0 -16 4.33301 -29.167 13 -39.5s20.334 -15.5 35.001 -15.5c23.333 0 43.5 9.66699 60.5 29s25.5 40.333 25.5 63
c0 17.333 -5.33301 31.666 -16 42.999c-7.33301 8 -15.333 12 -24 12c-1.33301 0 -3.5 -0.166992 -6.5 -0.5s-5.5 -0.5 -7.5 -0.5c-18 -2.66699 -29.667 -6.66699 -35 -12c-6.66699 -5.33301 -9.66699 -6 -9 -2c1.33301 7.33301 7 13.5 17 18.5s21.333 7.5 34 7.5
c16 0 29 -5 39 -15c13.333 -13.333 20 -30.333 20 -51c0 -18 -5 -35.833 -15 -53.5s-23.333 -30.5 -40 -38.5c-13.333 -6.66699 -27.333 -10 -42 -10c-13.333 0 -24.666 2.66699 -33.999 8c-19.333 9.33301 -29 28 -29 56c0 36 14.667 69.667 44 101z" />
    <glyph glyph-name="p" unicode="p" horiz-adv-x="277" 
d="M166 317c-9.33301 6.66699 -21.999 10.001 -37.999 10.001c-26.667 0 -44.334 -8 -53.001 -24c-4 -7.33301 -6 -32.333 -6 -75c0 -52 2.33301 -78 7 -78s9.66699 -2.66699 15 -8c7.33301 -6 19 -9 35 -9c19.333 0 34.333 3.33301 45 10c12 7.33301 22 16.666 30 27.999
c7.33301 10 11 24.333 11 43c0 20 -4.33301 39.833 -13 59.5s-19.667 34.167 -33 43.5zM63.001 343.001c2 10 4.66699 15.002 8 15.002c4 0 4.33301 -6 1 -18c-1.33301 -8.66699 -1.83301 -13.834 -1.5 -15.501s2.83301 -1.5 7.5 0.5c28 11.333 46.667 17 56 17
c4.66699 0 10 -1 16 -3c25.333 -7.33301 45 -25.333 59 -54c11.333 -22.667 17 -45.334 17 -68.001c0 -24 -6.66699 -44.667 -20 -62s-32 -29 -56 -35c-6.66699 -2 -14 -3 -22 -3c-19.333 0 -33.666 5.33301 -42.999 16c-4.66699 4.66699 -8 7 -10 7s-3.5 -17.333 -4.5 -52
l-3 -107c-1 -36.667 -3.16699 -56.667 -6.5 -60c-2.66699 -2.66699 -5 -4 -7 -4s-3 3 -3 9c0 4.66699 1.33301 17.667 4 39c2.66699 33.333 4 101.333 4 204c1.33301 110 2.66602 168 3.99902 174z" />
    <glyph glyph-name="q" unicode="q" horiz-adv-x="303" 
d="M121 203c0.666992 2.66699 1 5.66699 1 9c0 6.66699 -1.66699 10 -5 10c-4.66699 0 -13 -6.66699 -25 -20c-14.667 -15.333 -22 -28.333 -22 -39c0 -4 1 -7 3 -9s4 -3 6 -3c7.33301 0 15.833 5.83301 25.5 17.5s15.167 23.167 16.5 34.5zM117 236
c13.333 6.66699 23.332 10 29.999 10c7.33301 0 11 -3.33301 11 -10c0 -8 -3.33301 -18.667 -10 -32c-6.66699 -12.667 -10.5 -25 -11.5 -37s-1.5 -45.333 -1.5 -100c0 -49.333 0.333008 -80.333 1 -93s2.66699 -19.334 6 -20.001h2c12 0 38 14 78 42c16 12 24 16.333 24 13
s-8.16699 -12.333 -24.5 -27s-31.166 -26.334 -44.499 -35.001c-16 -10 -27.667 -15 -35 -15c-6.66699 0 -12.667 2.66699 -18 8c-5.33301 4.66699 -8 17.334 -8 38.001c0 2.66699 0.666992 27.334 2 74.001c0.666992 14.667 1 34.334 1 59.001c0 29.333 -0.666992 44 -2 44
c-3.33301 0 -9.33301 -3.33301 -18 -10c-10 -6.66699 -18.667 -10 -26 -10c-11.333 0 -17.666 5.66699 -18.999 17v6c0 13.333 5.66699 27.166 17 41.499s26.666 26.5 45.999 36.5z" />
    <glyph glyph-name="r" unicode="r" horiz-adv-x="244" 
d="M117 360c2.66699 1.33301 6.99902 2 12.999 2c21.333 0 39.333 -10.667 54 -32c4 -6 6 -10.333 6 -13c0 -1.33301 -0.666992 -2 -2 -2c-4 0 -10.333 4 -19 12c-10.667 10 -20.334 16.333 -29.001 19c-1.33301 0.666992 -3 1 -5 1c-22 0 -42.667 -50.333 -62 -151
c-7.33301 -36.667 -12.666 -55 -15.999 -55c-2.66699 0 -4 14.667 -4 44v20c2 92 6 138 12 138c2 0 3.66699 -13 5 -39v-40l9 29c5.33301 15.333 11.833 29.833 19.5 43.5s13.834 21.5 18.501 23.5z" />
    <glyph glyph-name="s" unicode="s" horiz-adv-x="279" 
d="M91 366c4 4.66699 11.666 7.00195 22.999 7.00195s27 -3 47 -9c17.333 -5.33301 32.833 -12.5 46.5 -21.5s20.5 -16.5 20.5 -22.5c0 -4.66699 -1.33301 -7 -4 -7c-3.33301 0 -10 4.66699 -20 14c-15.333 14.667 -40.666 24.667 -75.999 30c-14.667 2 -22 0.666992 -22 -4
c0 -6 14 -24.667 42 -56c48 -54 74 -94.333 78 -121c0 -1.33301 0.166992 -3 0.5 -5s0.5 -3.33301 0.5 -4c0 -20.667 -10.667 -31 -32 -31c-16.667 0 -36.167 6.83301 -58.5 20.5s-42.833 32.5 -61.5 56.5c-12.667 15.333 -19 24.666 -19 27.999l1 1
c2 0 13.333 -9.33301 34 -28c18.667 -16.667 38.167 -31.167 58.5 -43.5s35.5 -18.5 45.5 -18.5c1.33301 0 3.33301 0.666992 6 2c6.66699 3.33301 10 9 10 17c0 19.333 -23.667 56.666 -71 111.999c-35.333 42 -53 66.667 -53 74c0 2 1.33301 5 4 9z" />
    <glyph glyph-name="t" unicode="t" horiz-adv-x="337" 
d="M197 525c2 14 4.66602 21 7.99902 21h2c1.33301 0 2 -2 2 -6c0 -6.66699 -2.33301 -38.334 -7 -95.001c-3.33301 -38.667 -5 -66.667 -5 -84c0 -8 0.333008 -12.333 1 -13s11.334 -3.66699 32.001 -9c18.667 -4 33 -9.66699 43 -17
c5.33301 -3.33301 8 -5.66602 8 -6.99902h-3c-2.66699 0.666992 -17 4 -43 10c-15.333 3.33301 -24.666 5 -27.999 5c-4.66699 0 -8.33398 -1.33301 -11.001 -4c-3.33301 -4.66699 -7.33301 -29.334 -12 -74.001c-7.33301 -78 -14.333 -117 -21 -117
c-2.66699 0 -4 5.66699 -4 17c0 12 2.66699 43.667 8 95c4 29.333 6 52.333 6 69c0 5.33301 -0.333008 8.33301 -1 9c-2 5.33301 -21.667 8 -59 8s-56 1.66699 -56 5s34 7.33301 102 12l17 1l9 76c7.33301 60.667 11.333 93.334 12 98.001z" />
    <glyph glyph-name="u" unicode="u" horiz-adv-x="302" 
d="M227 370c-4 8 -6.00293 13 -6.00293 15c0 1.33301 0.333008 2 1 2c2.66699 0 8 -5 16 -15c8.66699 -10.667 13 -28.334 13 -53.001c0 -22 -3.33301 -43 -10 -63c-20.667 -70.667 -50 -106 -88 -106c-27.333 0 -50.666 14 -69.999 42s-29 60.667 -29 98
c0 15.333 1.33301 28.666 4 39.999c8 35.333 15.333 53 22 53l2 -1c2 -2 1 -5.33301 -3 -10c-8 -10 -12 -34 -12 -72c0 -8 0.666992 -18 2 -30c5.33301 -29.333 15.833 -54.166 31.5 -74.499s32.834 -30.5 51.501 -30.5c10.667 0 22.834 7.66699 36.501 23
s24.167 33.333 31.5 54c10 26.667 15 54.334 15 83.001c0 19.333 -2.66699 34.333 -8 45z" />
    <glyph glyph-name="v" unicode="v" horiz-adv-x="334" 
d="M262 334c3.33301 3.33301 5.66797 5.83398 7.00098 7.50098l5 6c2 2.33301 3.5 3.83301 4.5 4.5s1.5 0.666992 1.5 0c0 -7.33301 -32 -62.333 -96 -165c-21.333 -34 -39.333 -51 -54 -51c-13.333 0 -26.666 15.667 -39.999 47
c-6.66699 14.667 -14.334 38.167 -23.001 70.5s-13 53.166 -13 62.499c0 8 1 12 3 12c3.33301 0 7 -10 11 -30s11 -44.667 21 -74s17.667 -48 23 -56c7.33301 -10.667 13.666 -16 18.999 -16c6.66699 0 15.167 6.5 25.5 19.5s25.5 36.5 45.5 70.5
c27.333 47.333 47.333 78 60 92z" />
    <glyph glyph-name="w" unicode="w" horiz-adv-x="341" 
d="M56 330c2 4.66699 3.66504 7 4.99805 7c5.33301 0 8 -17 8 -51c0.666992 -32 4.5 -57.5 11.5 -76.5s16.5 -28.5 28.5 -28.5c6 0 11.333 3 16 9s10.334 17.667 17.001 35c8.66699 19.333 15 29 19 29c3.33301 0 8 -9.33301 14 -28c8 -26.667 15.5 -44.334 22.5 -53.001
s17.167 -13 30.5 -13c6 0 12.667 3.33301 20 10s12.666 14.334 15.999 23.001c2 6.66699 4.33301 32 7 76c2 44 5.33301 66.667 10 68h2c6 0 9 -11.333 9 -34c0 -12.667 -1 -29 -3 -49c-3.33301 -34.667 -8.16602 -59.167 -14.499 -73.5s-16.166 -24.833 -29.499 -31.5
c-10.667 -4.66699 -17 -7 -19 -7c-0.666992 0 -7 2.33301 -19 7c-12 5.33301 -22.667 16.333 -32 33c-8 14.667 -13 22 -15 22c-2.66699 0 -8 -6 -16 -18c-10 -16 -21.667 -24 -35 -24c-6 0 -12.333 2.33301 -19 7c-21.333 15.333 -33 49.333 -35 102
c0 4 -0.166992 9.66699 -0.5 17s-0.5 12.666 -0.5 15.999c0 14.667 0.666992 23.334 2 26.001z" />
    <glyph glyph-name="x" unicode="x" horiz-adv-x="285" 
d="M57 332c2 0 12.334 -13.333 31.001 -40c19.333 -26.667 31 -40 35 -40c3.33301 0 16.666 11 39.999 33c33.333 30.667 53.666 46 60.999 46c2 0 3.66699 -0.666992 5 -2c3.33301 -3.33301 1.33301 -7 -6 -11c-8.66699 -4.66699 -25.167 -19 -49.5 -43
s-36.5 -38.333 -36.5 -43c0 -6 10 -20.667 30 -44c17.333 -20 26 -33 26 -39c0 -1.33301 -0.333008 -2 -1 -2h-2c-8.66699 0 -25.334 17.333 -50.001 52c-7.33301 11.333 -12.666 17 -15.999 17s-12.666 -7.66699 -27.999 -23c-14.667 -14.667 -24 -22 -28 -22
c-1.33301 0 -2 0.666992 -2 2c0 5.33301 6.66699 16 20 32l26 31l-30 45c-18.667 26.667 -28 42.667 -28 48c0 2 1 3 3 3z" />
    <glyph glyph-name="y" unicode="y" horiz-adv-x="299" 
d="M71 317c2 0 14.998 -23 38.998 -69c22.667 -42.667 36.334 -64.667 41.001 -66c6 0 22 21.667 48 65c26.667 44 41.334 66 44.001 66c2 0 3 -0.666992 3 -2c0 -3.33301 -6 -15.666 -18 -36.999l-55 -98c-14 -26 -35.5 -63.833 -64.5 -113.5s-44.833 -76.167 -47.5 -79.5
c-0.666992 -0.666992 -2 -0.333984 -4 0.999023c-0.666992 0.666992 -1 1.33398 -1 2.00098c0 12.667 19.333 52 58 118l37 62l-16 18c-8 9.33301 -21.167 31.666 -39.5 66.999s-27.5 56.333 -27.5 63c0 2 1 3 3 3z" />
    <glyph glyph-name="z" unicode="z" horiz-adv-x="344" 
d="M64 340c6.66699 1.33301 16.334 2.00293 29.001 2.00293c52 0 84 -3.33301 96 -10c10.667 -4.66699 16 -9 16 -13c0 -6 -14 -10 -42 -12c-31.333 -2.66699 -53.833 -8.5 -67.5 -17.5s-20.5 -22.833 -20.5 -41.5c0 -28.667 12.667 -51.334 38 -68.001
s65.666 -29.667 120.999 -39c35.333 -6.66699 53 -12.667 53 -18c0 -2.66699 -4 -4 -12 -4c-1.33301 0 -10.666 0.666992 -27.999 2c-74.667 6 -128 26.333 -160 61c-18.667 19.333 -28 40.666 -28 63.999c0 16 4.66699 30.167 14 42.5s22.666 20.833 39.999 25.5
c15.333 5.33301 23 8.66602 23 9.99902c0 2.66699 -13.667 4 -41 4s-41 2 -41 6c0 2 3.33301 4 10 6z" />
    <glyph glyph-name="braceleft" unicode="{" horiz-adv-x="285" 
d="M144 625c12.667 4.66699 29.668 6.99902 51.001 6.99902c16 0 24 -1.66699 24 -5s-8.33301 -5 -25 -5c-34 0 -54.667 -7 -62 -21c-2 -4 -3 -8 -3 -12c0 -10 7 -33.333 21 -70c21.333 -52.667 32 -99.334 32 -140.001c0 -40 -10.667 -66.667 -32 -80
c-6.66699 -4.66699 -21.334 -8.33398 -44.001 -11.001l-31 -3l16 -15c10 -8.66699 17 -19.667 21 -33c3.33301 -8 5 -23.333 5 -46c0 -34 -3.33301 -65.333 -10 -94c-6.66699 -27.333 -10 -47.333 -10 -60c0 -9.33301 2 -17.666 6 -24.999
c8.66699 -15.333 37.667 -26.666 87 -33.999c26 -4 39 -8 39 -12c0 -2 -5 -3 -15 -3c-8 0 -15 0.333008 -21 1c-46.667 4.66699 -78 15 -94 31c-11.333 11.333 -17 25 -17 41c0 15.333 3.33301 36.333 10 63s10 57.334 10 92.001c0 22 -1.66699 36.667 -5 44
c-3.33301 8.66699 -11 19 -23 31s-17.333 19.667 -16 23c0.666992 2.66699 13 6 37 10c23.333 2.66699 39 6.66699 47 12c17.333 10.667 26 33.667 26 69c0 32 -7.33301 68.667 -22 110c-18.667 52.667 -28 86 -28 100c0 16 8.66699 27.667 26 35z" />
    <glyph glyph-name="bar" unicode="|" horiz-adv-x="120" 
d="M54 634c2 5.33301 3.66699 8 5 8c5.33301 0 8.33301 -96.667 9 -290c1.33301 -213.333 2 -327 2 -341v-11c0 -28 -2.33301 -42 -7 -42c-3.33301 0 -6.33301 9.33301 -9 28c-2.66699 24 -4 135 -4 333c0 202 1.33301 307 4 315z" />
    <glyph glyph-name="braceright" unicode="}" horiz-adv-x="298" 
d="M68 654c8.66699 2 18.0049 3 28.0049 3c38 0 64.667 -10.333 80 -31c5.33301 -7.33301 8 -14 8 -20c0 -10 -10.667 -24.333 -32 -43c-24.667 -20.667 -40.334 -35.167 -47.001 -43.5s-10 -17.166 -10 -26.499c0 -38.667 38.333 -76.667 115 -114c17.333 -8 26 -15 26 -21
c0 -3.33301 -4 -5 -12 -5s-18.167 -5.33301 -30.5 -16s-21.833 -22.334 -28.5 -35.001c-6.66699 -13.333 -10 -23.666 -10 -30.999c0 -13.333 11.333 -35.666 34 -66.999c20 -28 34.333 -52.667 43 -74c7.33301 -20 11 -37.333 11 -52c0 -30 -12 -51.333 -36 -64
c-10.667 -5.33301 -25.5 -10.833 -44.5 -16.5s-32.5 -8.5 -40.5 -8.5c-2.66699 0 -4.33398 0.333008 -5.00098 1s-1 1.33398 -1 2.00098c0 5.33301 10.667 10.666 32 15.999c30 7.33301 51.333 16.333 64 27s19 24.667 19 42c0 1.33301 -0.166992 3.16602 -0.5 5.49902
s-0.5 4.16602 -0.5 5.49902c-4.66699 30 -23.334 67.333 -56.001 112c-22.667 29.333 -34 50.666 -34 63.999c0 8 3.66699 20 11 36c5.33301 10.667 14.166 22.5 26.499 35.5s22.166 20.833 29.499 23.5c2.66699 0.666992 4 2 4 4c0 4 -10 10 -30 18
c-25.333 9.33301 -47.5 24 -66.5 44s-29.833 40.333 -32.5 61c0 0.666992 -0.166992 1.83398 -0.5 3.50098s-0.5 2.83398 -0.5 3.50098c0 18 17.333 40.667 52 68c25.333 19.333 38 35.666 38 48.999c0 2.66699 -1.33301 6.66699 -4 12c-9.33301 15.333 -33 23 -71 23
c-24.667 0 -37 1.66699 -37 5c0 0.666992 3 2 9 4z" />
    <glyph glyph-name="asciitilde" unicode="~" horiz-adv-x="482" 
d="M102 360c12 5.33301 22.667 7.99902 32 7.99902c24 0 51 -19.333 81 -58c21.333 -27.333 37.833 -44.666 49.5 -51.999s29.5 -11 53.5 -11c42.667 0 75.667 11.333 99 34c8.66699 8.66699 13 10.667 13 6c0 -5.33301 -4.66699 -12.5 -14 -21.5
s-19.666 -16.167 -30.999 -21.5c-17.333 -8 -43 -12 -77 -12c-7.33301 0 -16.333 0.666992 -27 2c-24.667 5.33301 -49.667 26.666 -75 63.999c-26 37.333 -50.667 56 -74 56c-10.667 0 -21.334 -3.66699 -32.001 -11c-8.66699 -6 -16.667 -15.667 -24 -29
s-11 -24.666 -11 -33.999c0 -8.66699 -2 -13 -6 -13s-5 7.66699 -3 23c2 14 7.5 27.833 16.5 41.5s18.833 23.167 29.5 28.5z" />
    <glyph glyph-name="nbsp" unicode="&#xa0;" 
 />
    <glyph glyph-name="sterling" unicode="&#xa3;" horiz-adv-x="668" 
d="M236 676c10 4 21.0049 6 33.0049 6c19.333 0 37.666 -5.16699 54.999 -15.5s29.333 -23.833 36 -40.5c2 -5.33301 3 -9.33301 3 -12s-0.666992 -4 -2 -4c-2.66699 0 -7.33398 5.33301 -14.001 16c-6 12 -16.5 22 -31.5 30s-30.167 12 -45.5 12
c-14.667 0 -27.667 -5.66699 -39 -17c-18 -18 -27 -43 -27 -75c0 -24 4.33301 -51 13 -81l9 -33l53 -1c50.667 -2 76 -5.33301 76 -10c0 -2.66699 -18.667 -4 -56 -4c-38 -1.33301 -58 -3 -60 -5c-0.666992 -0.666992 -1 -2.33398 -1 -5.00098c0 -11.333 4 -28.333 12 -51
l17 -50l21 -2c14 -1.33301 21 -3.33301 21 -6s-6 -4.66699 -18 -6l-19 -2l1 -29v-8c0 -17.333 -2.33301 -34.333 -7 -51s-10.334 -28 -17.001 -34c-6.66699 -5.33301 -10 -9.33301 -10 -12c0 -0.666992 30.333 -2.5 91 -5.5s122.167 -8.16699 184.5 -15.5
s95.166 -16.666 98.499 -27.999c1.33301 -2 1.16602 -3.33301 -0.500977 -4s-3.83398 -0.666992 -6.50098 0c-97.333 22 -202 33 -314 33c-48 0 -84.667 -3 -110 -9c-14.667 -4 -29.667 -6 -45 -6c-8.66699 0 -15 0.333008 -19 1c-40 5.33301 -60 12.666 -60 21.999v1l1 1
c2 3.33301 27.333 5 76 5h73l20 20c19.333 19.333 29 43.666 29 72.999c0 4.66699 -0.666992 12.334 -2 23.001l-4 23l-33 1c-50.667 2 -76 5.66699 -76 11c0 4 17 6 51 6h14c10 0 17.167 0.166992 21.5 0.5s7.83301 1.5 10.5 3.5s4 5 4 9c0 4.66699 -4.33301 20.667 -13 48
l-15 43l-43 4c-57.333 5.33301 -86 10.333 -86 15c0 2 8 3 24 3c10 0 25.5 -0.5 46.5 -1.5s34.167 -1.5 39.5 -1.5c1.33301 0 3 0.333008 5 1h3c0.666992 0.666992 1 1.66699 1 3c0 2.66699 -2.66699 17.334 -8 44.001c-6 30 -9 52.667 -9 68c0 23.333 4.33301 44 13 62
s20.334 30.333 35.001 37z" />
    <glyph glyph-name="quoteleft" unicode="&#x2018;" horiz-adv-x="183" 
d="M108 611c10.667 13.333 17.667 20 21 20c0.666992 0 1 -0.666992 1 -2c0 -6.66699 -9.66699 -24.667 -29 -54l-17.5 -27.5l-15.5 -24c-4 -6.33301 -6.33301 -10.166 -7 -11.499c-3.33301 0 -5.33301 1.66699 -6 5c0 7.33301 5.5 20.666 16.5 39.999
s23.167 37.333 36.5 54z" />
    <glyph glyph-name="quoteright" unicode="&#x2019;" horiz-adv-x="183" 
d="M108 611c10.667 13.333 17.667 20 21 20c0.666992 0 1 -0.666992 1 -2c0 -6.66699 -9.66699 -24.667 -29 -54l-17.5 -27.5l-15.5 -24c-4 -6.33301 -6.33301 -10.166 -7 -11.499c-3.33301 0 -5.33301 1.66699 -6 5c0 7.33301 5.5 20.666 16.5 39.999
s23.167 37.333 36.5 54z" />
    <glyph glyph-name="quotedblleft" unicode="&#x201c;" horiz-adv-x="191" 
d="M129 642c4.66699 6.66699 8 9.99902 10 9.99902c0.666992 0 1 -0.666992 1 -2c0 -2.66699 -2 -9.66699 -6 -21c-4 -14 -9.33301 -31.667 -16 -53c-5.33301 -20 -10 -30 -14 -30c-2 0 -3 3.33301 -3 10c0 7.33301 3.5 21.833 10.5 43.5s12.833 35.834 17.5 42.501z
M65 601.999c11.333 34.667 19.334 52 24.001 52c1.33301 0 2 -3 2 -9c0 -7.33301 -4.5 -24.833 -13.5 -52.5s-14.833 -42.5 -17.5 -44.5c-2.66699 -1.33301 -4.33398 -2 -5.00098 -2c-2 0 -3 2 -3 6c0 7.33301 4.33301 24 13 50z" />
    <glyph glyph-name="quotedblright" unicode="&#x201d;" horiz-adv-x="191" 
d="M129 642c4.66699 6.66699 8 9.99902 10 9.99902c0.666992 0 1 -0.666992 1 -2c0 -2.66699 -2 -9.66699 -6 -21c-4 -14 -9.33301 -31.667 -16 -53c-5.33301 -20 -10 -30 -14 -30c-2 0 -3 3.33301 -3 10c0 7.33301 3.5 21.833 10.5 43.5s12.833 35.834 17.5 42.501z
M65 601.999c11.333 34.667 19.334 52 24.001 52c1.33301 0 2 -3 2 -9c0 -7.33301 -4.5 -24.833 -13.5 -52.5s-14.833 -42.5 -17.5 -44.5c-2.66699 -1.33301 -4.33398 -2 -5.00098 -2c-2 0 -3 2 -3 6c0 7.33301 4.33301 24 13 50z" />
    <glyph glyph-name="lira" unicode="&#x20a4;" horiz-adv-x="668" 
d="M236 676c10 4 21.0049 6 33.0049 6c19.333 0 37.666 -5.16699 54.999 -15.5s29.333 -23.833 36 -40.5c2 -5.33301 3 -9.33301 3 -12s-0.666992 -4 -2 -4c-2.66699 0 -7.33398 5.33301 -14.001 16c-6 12 -16.5 22 -31.5 30s-30.167 12 -45.5 12
c-14.667 0 -27.667 -5.66699 -39 -17c-18 -18 -27 -43 -27 -75c0 -24 4.33301 -51 13 -81l9 -33l53 -1c50.667 -2 76 -5.33301 76 -10c0 -2.66699 -18.667 -4 -56 -4c-38 -1.33301 -58 -3 -60 -5c-0.666992 -0.666992 -1 -2.33398 -1 -5.00098c0 -11.333 4 -28.333 12 -51
l17 -50l21 -2c14 -1.33301 21 -3.33301 21 -6s-6 -4.66699 -18 -6l-19 -2l1 -29v-8c0 -17.333 -2.33301 -34.333 -7 -51s-10.334 -28 -17.001 -34c-6.66699 -5.33301 -10 -9.33301 -10 -12c0 -0.666992 30.333 -2.5 91 -5.5s122.167 -8.16699 184.5 -15.5
s95.166 -16.666 98.499 -27.999c1.33301 -2 1.16602 -3.33301 -0.500977 -4s-3.83398 -0.666992 -6.50098 0c-97.333 22 -202 33 -314 33c-48 0 -84.667 -3 -110 -9c-14.667 -4 -29.667 -6 -45 -6c-8.66699 0 -15 0.333008 -19 1c-40 5.33301 -60 12.666 -60 21.999v1l1 1
c2 3.33301 27.333 5 76 5h73l20 20c19.333 19.333 29 43.666 29 72.999c0 4.66699 -0.666992 12.334 -2 23.001l-4 23l-33 1c-50.667 2 -76 5.66699 -76 11c0 4 17 6 51 6h14c10 0 17.167 0.166992 21.5 0.5s7.83301 1.5 10.5 3.5s4 5 4 9c0 4.66699 -4.33301 20.667 -13 48
l-15 43l-43 4c-57.333 5.33301 -86 10.333 -86 15c0 2 8 3 24 3c10 0 25.5 -0.5 46.5 -1.5s34.167 -1.5 39.5 -1.5c1.33301 0 3 0.333008 5 1h3c0.666992 0.666992 1 1.66699 1 3c0 2.66699 -2.66699 17.334 -8 44.001c-6 30 -9 52.667 -9 68c0 23.333 4.33301 44 13 62
s20.334 30.333 35.001 37z" />
    <glyph glyph-name="Euro" unicode="&#x20ac;" horiz-adv-x="457" 
d="M243 592c10 5.33301 20.333 7.99609 31 7.99609c8.66699 0 14 -2.33301 16 -7c0.666992 -2 0.166992 -3.5 -1.5 -4.5s-4.83398 -1.5 -9.50098 -1.5c-17.333 0 -36 -10.167 -56 -30.5s-38.667 -48.166 -56 -83.499c-14 -27.333 -21 -45.666 -21 -54.999
c0 -4.66699 2 -7 6 -7c2.66699 0 4.66699 0.333008 6 1c3.33301 1.33301 23 3.33301 59 6c20 1.33301 31 2 33 2c10 0 15 -1.33301 15 -4c0 -6 -9 -9.66699 -27 -11c-20.667 -0.666992 -41.5 -3.16699 -62.5 -7.5s-33.167 -8.16602 -36.5 -11.499
c-8.66699 -10 -13 -34.667 -13 -74c0 -8.66699 0.333008 -14.667 1 -18l4 -23l42 4c5.33301 0.666992 12.666 1 21.999 1c14 0 21 -1.33301 21 -4s-10 -5.33398 -30 -8.00098c-21.333 -2.66699 -34.666 -5.33398 -39.999 -8.00098c-5.33301 -2 -8.33301 -4 -9 -6
s0.333008 -6.66699 3 -14c6 -13.333 16.667 -27.666 32 -42.999c28.667 -28.667 62.667 -43 102 -43c16 0 35.333 3.33301 58 10s40.334 14.334 53.001 23.001c8.66699 6 14 9 16 9c1.33301 0 2 -0.333008 2 -1c0 -3.33301 -5 -9 -15 -17c-28.667 -24.667 -69 -37 -121 -37
c-29.333 0 -52.333 4.66699 -69 14c-31.333 16.667 -55.666 42 -72.999 76c-6.66699 12.667 -11.667 20.5 -15 23.5s-9.33301 4.83301 -18 5.5c-10.667 0.666992 -16 2.66699 -16 6s6 5 18 5h14l2 52v21c0 20.667 -0.666992 32.334 -2 35.001
c-2.66699 2.66699 -10.667 1.33398 -24 -3.99902c-16.667 -3.33301 -25.334 -4 -26.001 -2c0 3.33301 9 9.33301 27 18c16.667 7.33301 27 13.666 31 18.999s10.667 19.333 20 42c12.667 33.333 29 63.5 49 90.5s39.333 44.833 58 53.5z" />
    <glyph glyph-name="nonmarkingreturn" horiz-adv-x="333" 
 />
  </font>
</defs>
</svg>
